<svg width="77" height="53" viewBox="0 0 77 53" fill="none" xmlns="http://www.w3.org/2000/svg">
<g filter="url(#filter0_d_18_907)">
<mask id="path-1-outside-1_18_907" maskUnits="userSpaceOnUse" x="1" y="15.666" width="63" height="35" fill="black">
<rect fill="white" x="1" y="15.666" width="63" height="35"/>
<path d="M9.84263 25.8895C10.071 26.178 10.1852 26.6047 10.1852 27.1696C10.1852 27.7225 9.96884 28.1732 9.53614 28.5218C9.11546 28.8583 8.53252 29.0266 7.78732 29.0266C7.35463 29.0266 6.80174 28.9785 6.12865 28.8824C4.80652 28.678 3.95315 28.5759 3.56853 28.5759C3.19593 28.5759 2.9315 28.5879 2.77525 28.6119C2.619 28.6239 2.41467 28.642 2.16226 28.666L4.34378 16.7668H8.29214L6.48923 26.6828C6.64548 26.7069 6.79573 26.7189 6.93996 26.7189H7.39068C8.40031 26.7189 9.21763 26.4424 9.84263 25.8895ZM15.3218 29.0266C12.6775 29.0266 11.3554 27.7826 11.3554 25.2946C11.3554 23.5277 11.8422 22.0734 12.8157 20.9316C13.8494 19.7176 15.2617 19.1106 17.0526 19.1106C18.3507 19.1106 19.3302 19.4111 19.9913 20.0121C20.6524 20.613 20.9829 21.5445 20.9829 22.8066C20.9829 24.7297 20.4661 26.2501 19.4324 27.3679C18.4228 28.4737 17.0526 29.0266 15.3218 29.0266ZM15.7905 21.184C15.6463 21.5085 15.5141 21.9171 15.3939 22.4099C15.2857 22.8907 15.1595 23.5157 15.0153 24.285C14.871 25.0542 14.7989 25.9136 14.7989 26.8631C14.7989 27.1756 14.847 27.434 14.9432 27.6384C15.0513 27.8427 15.2436 27.9449 15.5201 27.9449C15.7965 27.9449 16.0189 27.8787 16.1872 27.7465C16.3675 27.6143 16.5237 27.392 16.6559 27.0795C16.8963 26.5266 17.1127 25.7393 17.305 24.7177C17.4973 23.684 17.5994 22.9448 17.6115 22.5001C17.6355 22.0554 17.6475 21.6707 17.6475 21.3462C17.6475 21.0097 17.5994 20.7332 17.5033 20.5169C17.4071 20.3005 17.2208 20.1924 16.9444 20.1924C16.68 20.1924 16.4576 20.2765 16.2773 20.4448C16.097 20.613 15.9348 20.8594 15.7905 21.184ZM28.4647 19.7777C28.8613 19.333 29.4022 19.1106 30.0873 19.1106C30.508 19.1106 30.8806 19.2248 31.2051 19.4532C31.5296 19.6815 31.6919 20.0121 31.6919 20.4448C31.6919 20.8654 31.6258 21.3042 31.4935 21.7609C31.3613 22.2176 31.1931 22.6804 30.9887 23.1491C30.5801 24.0626 30.0933 24.8979 29.5284 25.6552C28.7351 26.7489 27.9538 27.5843 27.1846 28.1612C26.4274 28.7381 25.6341 29.0266 24.8048 29.0266C24.1317 29.0266 23.5908 28.9485 23.1822 28.7922C23.11 26.2682 23.0259 24.5554 22.9297 23.6539C22.8456 22.7525 22.7675 22.0554 22.6954 21.5626C22.5752 20.601 22.3348 20.0061 21.9742 19.7777C22.2507 19.5373 22.5211 19.369 22.7855 19.2729C23.062 19.1647 23.4766 19.1106 24.0295 19.1106C24.5944 19.1106 25.0752 19.333 25.4718 19.7777C25.8685 20.2104 26.1029 20.8174 26.175 21.5986C26.2591 22.3679 26.3012 23.2212 26.3012 24.1588C26.3012 25.0963 26.2651 26.1299 26.193 27.2598C26.5656 26.9953 26.9502 26.4605 27.3469 25.6552C27.8877 24.5374 28.2543 23.3054 28.4466 21.9592C28.5067 21.5506 28.5368 21.1299 28.5368 20.6972C28.5368 20.2645 28.5127 19.958 28.4647 19.7777ZM9.33782 41.3366C9.51811 40.976 9.60826 40.6275 9.60826 40.2909C9.60826 39.9544 9.59023 39.696 9.55417 39.5157C9.51811 39.3234 9.45801 39.1551 9.37388 39.0109C9.19359 38.6983 8.92315 38.5421 8.56257 38.5421C8.11786 38.5421 7.71521 38.7044 7.35463 39.0289C6.97001 39.3654 6.7777 39.7981 6.7777 40.327C6.7777 40.6635 6.89188 40.964 7.12025 41.2284C7.36064 41.4808 7.66112 41.7272 8.0217 41.9676C8.38228 42.208 8.7669 42.4484 9.17556 42.6888C9.58422 42.9292 9.96884 43.1936 10.3294 43.4821C11.1588 44.1431 11.5734 44.9184 11.5734 45.8078C11.5734 46.4088 11.4112 46.9677 11.0866 47.4845C10.7741 47.9893 10.3535 48.428 9.82461 48.8006C8.67075 49.6179 7.33059 50.0266 5.80413 50.0266C4.56613 50.0266 3.62862 49.8283 2.9916 49.4316C2.35457 49.023 2.03606 48.5122 2.03606 47.8992C2.03606 46.8054 2.46275 46.1203 3.31612 45.8439C3.55651 45.7597 3.85699 45.7177 4.21757 45.7177C4.59017 45.7177 4.98681 45.7958 5.40749 45.952C5.21518 46.4448 5.11902 46.9136 5.11902 47.3583C5.11902 48.3198 5.46158 48.8006 6.14668 48.8006C6.5914 48.8006 6.99405 48.6384 7.35463 48.3138C7.72723 47.9893 7.91353 47.6468 7.91353 47.2862C7.91353 46.9136 7.79333 46.5951 7.55295 46.3306C7.32458 46.0662 7.03611 45.8318 6.68755 45.6275C6.33899 45.4112 5.96038 45.2008 5.55172 44.9965C5.15508 44.7922 4.78248 44.5458 4.43392 44.2573C3.6166 43.5962 3.20795 42.7369 3.20795 41.6791C3.20795 40.994 3.37622 40.3871 3.71276 39.8582C4.0493 39.3173 4.48801 38.8666 5.02888 38.506C6.11062 37.7729 7.31256 37.4063 8.63469 37.4063C9.96884 37.4063 10.9544 37.6046 11.5915 38.0012C12.2405 38.3979 12.565 38.9327 12.565 39.6058C12.565 40.1948 12.3367 40.6755 11.8799 41.0481C11.4833 41.3606 11.0446 41.5169 10.5638 41.5169C10.083 41.5169 9.67436 41.4568 9.33782 41.3366ZM20.2426 46.6191C20.5431 46.8234 20.6933 47.154 20.6933 47.6107C20.6933 48.0554 20.5791 48.422 20.3507 48.7105C20.1224 48.9989 19.8219 49.2393 19.4493 49.4316C18.6801 49.8283 17.8808 50.0266 17.0514 50.0266C16.2221 50.0266 15.561 49.9365 15.0682 49.7562C14.5875 49.5759 14.1848 49.3175 13.8603 48.9809C13.2233 48.3439 12.9048 47.4424 12.9048 46.2766C12.9048 44.4616 13.3975 43.0013 14.3831 41.8955C15.4408 40.7056 16.8892 40.1106 18.7281 40.1106C19.87 40.1106 20.7233 40.351 21.2883 40.8318C21.7089 41.1924 21.9193 41.6671 21.9193 42.2561C21.9193 44.3715 20.0923 45.4292 16.4384 45.4292C16.3904 45.7417 16.3663 46.0302 16.3663 46.2946C16.3663 46.8475 16.4865 47.2321 16.7269 47.4484C16.9793 47.6528 17.3339 47.7549 17.7906 47.7549C18.2474 47.7549 18.7161 47.6528 19.1969 47.4484C19.6897 47.2321 20.0382 46.9556 20.2426 46.6191ZM16.5646 44.6539C17.418 44.6539 18.0911 44.3895 18.5839 43.8607C19.0767 43.3559 19.3231 42.7008 19.3231 41.8955C19.3231 41.6191 19.269 41.4087 19.1608 41.2645C19.0647 41.1082 18.9144 41.0301 18.7101 41.0301C18.5058 41.0301 18.3135 41.0722 18.1332 41.1563C17.9649 41.2284 17.7906 41.3967 17.6103 41.6611C17.1656 42.2621 16.8171 43.2597 16.5646 44.6539ZM23.3116 49.1251C23.0352 48.8126 22.8308 48.41 22.6986 47.9172C22.5784 47.4244 22.5183 46.7754 22.5183 45.9701C22.5183 45.1648 22.6565 44.3955 22.933 43.6623C23.2094 42.9292 23.6001 42.2981 24.1049 41.7693C25.1385 40.6635 26.5087 40.1106 28.2155 40.1106C28.8285 40.1106 29.3573 40.2128 29.8021 40.4171L32.885 40.1106L31.5509 47.1419C31.5148 47.2862 31.4968 47.4905 31.4968 47.7549C31.4968 48.0194 31.5749 48.2357 31.7312 48.404C31.8994 48.5723 32.1038 48.6684 32.3441 48.6924C32.224 49.1011 31.9415 49.4256 31.4968 49.666C31.0641 49.9064 30.6013 50.0266 30.1085 50.0266C29.6158 50.0266 29.2011 49.9304 28.8645 49.7381C28.54 49.5578 28.3297 49.3114 28.2335 48.9989C28.0412 49.2994 27.7407 49.5458 27.3321 49.7381C26.9234 49.9304 26.4426 50.0266 25.8898 50.0266C25.3489 50.0266 24.8561 49.9545 24.4114 49.8102C23.9667 49.666 23.6001 49.4376 23.3116 49.1251ZM27.1157 41.8054C26.9835 42.0217 26.8573 42.3162 26.7371 42.6888C26.6169 43.0494 26.4547 43.7224 26.2503 44.708C26.058 45.6816 25.9619 46.5169 25.9619 47.2141C25.9619 47.9112 26.016 48.3619 26.1241 48.5662C26.2323 48.7706 26.3825 48.8727 26.5749 48.8727C26.9595 48.8727 27.29 48.6924 27.5665 48.3319C27.8549 47.9593 28.0532 47.4484 28.1614 46.7994L29.1169 41.5169C28.8645 41.3005 28.5881 41.1924 28.2876 41.1924C27.9991 41.1924 27.7648 41.2404 27.5845 41.3366C27.4162 41.4328 27.26 41.589 27.1157 41.8054ZM39.5004 44.5999C39.9331 43.8306 40.1495 43.0554 40.1495 42.2741C40.1495 41.7573 39.9632 41.4989 39.5906 41.4989C39.3021 41.4989 39.0076 41.7453 38.7071 42.238C38.3946 42.7308 38.1903 43.2958 38.0941 43.9328L37.1566 49.666L33.4246 50.0266L35.2636 40.4712L38.2384 40.1106L37.9139 41.9316C38.5028 40.7176 39.4583 40.1106 40.7805 40.1106C41.4776 40.1106 42.0125 40.2909 42.3851 40.6515C42.7697 41.0121 42.962 41.565 42.962 42.3102C42.962 43.0433 42.7156 43.6443 42.2228 44.1131C41.742 44.5818 41.087 44.8162 40.2576 44.8162C39.897 44.8162 39.6446 44.7441 39.5004 44.5999ZM52.1114 42.1659C52.1114 42.6707 51.9011 43.0794 51.4804 43.3919C51.0598 43.7044 50.5069 43.8607 49.8218 43.8607C49.5333 43.8607 49.3049 43.8186 49.1367 43.7345C49.2689 43.422 49.353 43.0734 49.3891 42.6888C49.4371 42.2921 49.4612 42.0397 49.4612 41.9316C49.4612 41.4267 49.2869 41.1743 48.9383 41.1743C48.6979 41.1743 48.4395 41.3246 48.1631 41.6251C47.8987 41.9255 47.6523 42.3102 47.4239 42.7789C46.9191 43.8607 46.6667 44.9484 46.6667 46.0422C46.6667 46.6431 46.7809 47.0819 47.0092 47.3583C47.2376 47.6227 47.6042 47.7549 48.109 47.7549C48.8061 47.7549 49.4311 47.4665 49.984 46.8895C50.1403 46.7093 50.2605 46.5169 50.3446 46.3126C50.8013 46.553 51.0297 47.0037 51.0297 47.6648C51.0297 48.3379 50.6571 48.8968 49.9119 49.3415C49.1427 49.7982 48.1451 50.0266 46.9191 50.0266C44.4791 50.0266 43.2592 48.7345 43.2592 46.1504C43.2592 44.2633 43.794 42.7789 44.8638 41.6972C45.8974 40.6395 47.3638 40.1106 49.2629 40.1106C51.1619 40.1106 52.1114 40.7957 52.1114 42.1659ZM61.6592 47.6648C61.6592 48.1936 61.9297 48.5362 62.4705 48.6924C62.3383 49.1372 62.0138 49.4797 61.497 49.7201C61.0643 49.9244 60.6075 50.0266 60.1268 50.0266C59.658 50.0266 59.2974 49.9605 59.045 49.8283C58.8046 49.7081 58.6183 49.5458 58.4861 49.3415C58.2698 49.029 58.1616 48.5783 58.1616 47.9893C58.1616 47.6408 58.2577 46.9857 58.4501 46.0241L58.7025 44.6539C58.9068 43.6083 59.009 42.8931 59.009 42.5085C59.009 41.8354 58.8227 41.4989 58.4501 41.4989C57.9813 41.4989 57.5967 41.8414 57.2962 42.5265C57.176 42.7909 57.0738 43.1215 56.9897 43.5181L55.7637 49.666L52.1399 50.0266L54.682 37.0457L58.3058 36.6851L58.1616 37.4063C57.8251 39.2572 57.5125 40.4952 57.2241 41.1202C57.8972 40.4472 58.8527 40.1106 60.0907 40.1106C61.4008 40.1106 62.1761 40.5433 62.4164 41.4087C62.5006 41.6852 62.5427 41.9436 62.5427 42.184C62.5427 42.4243 62.5306 42.6407 62.5066 42.833C62.4946 43.0133 62.4585 43.2717 62.3984 43.6083L62.164 44.9063L61.7494 46.9436C61.6893 47.2201 61.6592 47.4605 61.6592 47.6648Z"/>
</mask>
<path d="M9.84263 25.8895C10.071 26.178 10.1852 26.6047 10.1852 27.1696C10.1852 27.7225 9.96884 28.1732 9.53614 28.5218C9.11546 28.8583 8.53252 29.0266 7.78732 29.0266C7.35463 29.0266 6.80174 28.9785 6.12865 28.8824C4.80652 28.678 3.95315 28.5759 3.56853 28.5759C3.19593 28.5759 2.9315 28.5879 2.77525 28.6119C2.619 28.6239 2.41467 28.642 2.16226 28.666L4.34378 16.7668H8.29214L6.48923 26.6828C6.64548 26.7069 6.79573 26.7189 6.93996 26.7189H7.39068C8.40031 26.7189 9.21763 26.4424 9.84263 25.8895ZM15.3218 29.0266C12.6775 29.0266 11.3554 27.7826 11.3554 25.2946C11.3554 23.5277 11.8422 22.0734 12.8157 20.9316C13.8494 19.7176 15.2617 19.1106 17.0526 19.1106C18.3507 19.1106 19.3302 19.4111 19.9913 20.0121C20.6524 20.613 20.9829 21.5445 20.9829 22.8066C20.9829 24.7297 20.4661 26.2501 19.4324 27.3679C18.4228 28.4737 17.0526 29.0266 15.3218 29.0266ZM15.7905 21.184C15.6463 21.5085 15.5141 21.9171 15.3939 22.4099C15.2857 22.8907 15.1595 23.5157 15.0153 24.285C14.871 25.0542 14.7989 25.9136 14.7989 26.8631C14.7989 27.1756 14.847 27.434 14.9432 27.6384C15.0513 27.8427 15.2436 27.9449 15.5201 27.9449C15.7965 27.9449 16.0189 27.8787 16.1872 27.7465C16.3675 27.6143 16.5237 27.392 16.6559 27.0795C16.8963 26.5266 17.1127 25.7393 17.305 24.7177C17.4973 23.684 17.5994 22.9448 17.6115 22.5001C17.6355 22.0554 17.6475 21.6707 17.6475 21.3462C17.6475 21.0097 17.5994 20.7332 17.5033 20.5169C17.4071 20.3005 17.2208 20.1924 16.9444 20.1924C16.68 20.1924 16.4576 20.2765 16.2773 20.4448C16.097 20.613 15.9348 20.8594 15.7905 21.184ZM28.4647 19.7777C28.8613 19.333 29.4022 19.1106 30.0873 19.1106C30.508 19.1106 30.8806 19.2248 31.2051 19.4532C31.5296 19.6815 31.6919 20.0121 31.6919 20.4448C31.6919 20.8654 31.6258 21.3042 31.4935 21.7609C31.3613 22.2176 31.1931 22.6804 30.9887 23.1491C30.5801 24.0626 30.0933 24.8979 29.5284 25.6552C28.7351 26.7489 27.9538 27.5843 27.1846 28.1612C26.4274 28.7381 25.6341 29.0266 24.8048 29.0266C24.1317 29.0266 23.5908 28.9485 23.1822 28.7922C23.11 26.2682 23.0259 24.5554 22.9297 23.6539C22.8456 22.7525 22.7675 22.0554 22.6954 21.5626C22.5752 20.601 22.3348 20.0061 21.9742 19.7777C22.2507 19.5373 22.5211 19.369 22.7855 19.2729C23.062 19.1647 23.4766 19.1106 24.0295 19.1106C24.5944 19.1106 25.0752 19.333 25.4718 19.7777C25.8685 20.2104 26.1029 20.8174 26.175 21.5986C26.2591 22.3679 26.3012 23.2212 26.3012 24.1588C26.3012 25.0963 26.2651 26.1299 26.193 27.2598C26.5656 26.9953 26.9502 26.4605 27.3469 25.6552C27.8877 24.5374 28.2543 23.3054 28.4466 21.9592C28.5067 21.5506 28.5368 21.1299 28.5368 20.6972C28.5368 20.2645 28.5127 19.958 28.4647 19.7777ZM9.33782 41.3366C9.51811 40.976 9.60826 40.6275 9.60826 40.2909C9.60826 39.9544 9.59023 39.696 9.55417 39.5157C9.51811 39.3234 9.45801 39.1551 9.37388 39.0109C9.19359 38.6983 8.92315 38.5421 8.56257 38.5421C8.11786 38.5421 7.71521 38.7044 7.35463 39.0289C6.97001 39.3654 6.7777 39.7981 6.7777 40.327C6.7777 40.6635 6.89188 40.964 7.12025 41.2284C7.36064 41.4808 7.66112 41.7272 8.0217 41.9676C8.38228 42.208 8.7669 42.4484 9.17556 42.6888C9.58422 42.9292 9.96884 43.1936 10.3294 43.4821C11.1588 44.1431 11.5734 44.9184 11.5734 45.8078C11.5734 46.4088 11.4112 46.9677 11.0866 47.4845C10.7741 47.9893 10.3535 48.428 9.82461 48.8006C8.67075 49.6179 7.33059 50.0266 5.80413 50.0266C4.56613 50.0266 3.62862 49.8283 2.9916 49.4316C2.35457 49.023 2.03606 48.5122 2.03606 47.8992C2.03606 46.8054 2.46275 46.1203 3.31612 45.8439C3.55651 45.7597 3.85699 45.7177 4.21757 45.7177C4.59017 45.7177 4.98681 45.7958 5.40749 45.952C5.21518 46.4448 5.11902 46.9136 5.11902 47.3583C5.11902 48.3198 5.46158 48.8006 6.14668 48.8006C6.5914 48.8006 6.99405 48.6384 7.35463 48.3138C7.72723 47.9893 7.91353 47.6468 7.91353 47.2862C7.91353 46.9136 7.79333 46.5951 7.55295 46.3306C7.32458 46.0662 7.03611 45.8318 6.68755 45.6275C6.33899 45.4112 5.96038 45.2008 5.55172 44.9965C5.15508 44.7922 4.78248 44.5458 4.43392 44.2573C3.6166 43.5962 3.20795 42.7369 3.20795 41.6791C3.20795 40.994 3.37622 40.3871 3.71276 39.8582C4.0493 39.3173 4.48801 38.8666 5.02888 38.506C6.11062 37.7729 7.31256 37.4063 8.63469 37.4063C9.96884 37.4063 10.9544 37.6046 11.5915 38.0012C12.2405 38.3979 12.565 38.9327 12.565 39.6058C12.565 40.1948 12.3367 40.6755 11.8799 41.0481C11.4833 41.3606 11.0446 41.5169 10.5638 41.5169C10.083 41.5169 9.67436 41.4568 9.33782 41.3366ZM20.2426 46.6191C20.5431 46.8234 20.6933 47.154 20.6933 47.6107C20.6933 48.0554 20.5791 48.422 20.3507 48.7105C20.1224 48.9989 19.8219 49.2393 19.4493 49.4316C18.6801 49.8283 17.8808 50.0266 17.0514 50.0266C16.2221 50.0266 15.561 49.9365 15.0682 49.7562C14.5875 49.5759 14.1848 49.3175 13.8603 48.9809C13.2233 48.3439 12.9048 47.4424 12.9048 46.2766C12.9048 44.4616 13.3975 43.0013 14.3831 41.8955C15.4408 40.7056 16.8892 40.1106 18.7281 40.1106C19.87 40.1106 20.7233 40.351 21.2883 40.8318C21.7089 41.1924 21.9193 41.6671 21.9193 42.2561C21.9193 44.3715 20.0923 45.4292 16.4384 45.4292C16.3904 45.7417 16.3663 46.0302 16.3663 46.2946C16.3663 46.8475 16.4865 47.2321 16.7269 47.4484C16.9793 47.6528 17.3339 47.7549 17.7906 47.7549C18.2474 47.7549 18.7161 47.6528 19.1969 47.4484C19.6897 47.2321 20.0382 46.9556 20.2426 46.6191ZM16.5646 44.6539C17.418 44.6539 18.0911 44.3895 18.5839 43.8607C19.0767 43.3559 19.3231 42.7008 19.3231 41.8955C19.3231 41.6191 19.269 41.4087 19.1608 41.2645C19.0647 41.1082 18.9144 41.0301 18.7101 41.0301C18.5058 41.0301 18.3135 41.0722 18.1332 41.1563C17.9649 41.2284 17.7906 41.3967 17.6103 41.6611C17.1656 42.2621 16.8171 43.2597 16.5646 44.6539ZM23.3116 49.1251C23.0352 48.8126 22.8308 48.41 22.6986 47.9172C22.5784 47.4244 22.5183 46.7754 22.5183 45.9701C22.5183 45.1648 22.6565 44.3955 22.933 43.6623C23.2094 42.9292 23.6001 42.2981 24.1049 41.7693C25.1385 40.6635 26.5087 40.1106 28.2155 40.1106C28.8285 40.1106 29.3573 40.2128 29.8021 40.4171L32.885 40.1106L31.5509 47.1419C31.5148 47.2862 31.4968 47.4905 31.4968 47.7549C31.4968 48.0194 31.5749 48.2357 31.7312 48.404C31.8994 48.5723 32.1038 48.6684 32.3441 48.6924C32.224 49.1011 31.9415 49.4256 31.4968 49.666C31.0641 49.9064 30.6013 50.0266 30.1085 50.0266C29.6158 50.0266 29.2011 49.9304 28.8645 49.7381C28.54 49.5578 28.3297 49.3114 28.2335 48.9989C28.0412 49.2994 27.7407 49.5458 27.3321 49.7381C26.9234 49.9304 26.4426 50.0266 25.8898 50.0266C25.3489 50.0266 24.8561 49.9545 24.4114 49.8102C23.9667 49.666 23.6001 49.4376 23.3116 49.1251ZM27.1157 41.8054C26.9835 42.0217 26.8573 42.3162 26.7371 42.6888C26.6169 43.0494 26.4547 43.7224 26.2503 44.708C26.058 45.6816 25.9619 46.5169 25.9619 47.2141C25.9619 47.9112 26.016 48.3619 26.1241 48.5662C26.2323 48.7706 26.3825 48.8727 26.5749 48.8727C26.9595 48.8727 27.29 48.6924 27.5665 48.3319C27.8549 47.9593 28.0532 47.4484 28.1614 46.7994L29.1169 41.5169C28.8645 41.3005 28.5881 41.1924 28.2876 41.1924C27.9991 41.1924 27.7648 41.2404 27.5845 41.3366C27.4162 41.4328 27.26 41.589 27.1157 41.8054ZM39.5004 44.5999C39.9331 43.8306 40.1495 43.0554 40.1495 42.2741C40.1495 41.7573 39.9632 41.4989 39.5906 41.4989C39.3021 41.4989 39.0076 41.7453 38.7071 42.238C38.3946 42.7308 38.1903 43.2958 38.0941 43.9328L37.1566 49.666L33.4246 50.0266L35.2636 40.4712L38.2384 40.1106L37.9139 41.9316C38.5028 40.7176 39.4583 40.1106 40.7805 40.1106C41.4776 40.1106 42.0125 40.2909 42.3851 40.6515C42.7697 41.0121 42.962 41.565 42.962 42.3102C42.962 43.0433 42.7156 43.6443 42.2228 44.1131C41.742 44.5818 41.087 44.8162 40.2576 44.8162C39.897 44.8162 39.6446 44.7441 39.5004 44.5999ZM52.1114 42.1659C52.1114 42.6707 51.9011 43.0794 51.4804 43.3919C51.0598 43.7044 50.5069 43.8607 49.8218 43.8607C49.5333 43.8607 49.3049 43.8186 49.1367 43.7345C49.2689 43.422 49.353 43.0734 49.3891 42.6888C49.4371 42.2921 49.4612 42.0397 49.4612 41.9316C49.4612 41.4267 49.2869 41.1743 48.9383 41.1743C48.6979 41.1743 48.4395 41.3246 48.1631 41.6251C47.8987 41.9255 47.6523 42.3102 47.4239 42.7789C46.9191 43.8607 46.6667 44.9484 46.6667 46.0422C46.6667 46.6431 46.7809 47.0819 47.0092 47.3583C47.2376 47.6227 47.6042 47.7549 48.109 47.7549C48.8061 47.7549 49.4311 47.4665 49.984 46.8895C50.1403 46.7093 50.2605 46.5169 50.3446 46.3126C50.8013 46.553 51.0297 47.0037 51.0297 47.6648C51.0297 48.3379 50.6571 48.8968 49.9119 49.3415C49.1427 49.7982 48.1451 50.0266 46.9191 50.0266C44.4791 50.0266 43.2592 48.7345 43.2592 46.1504C43.2592 44.2633 43.794 42.7789 44.8638 41.6972C45.8974 40.6395 47.3638 40.1106 49.2629 40.1106C51.1619 40.1106 52.1114 40.7957 52.1114 42.1659ZM61.6592 47.6648C61.6592 48.1936 61.9297 48.5362 62.4705 48.6924C62.3383 49.1372 62.0138 49.4797 61.497 49.7201C61.0643 49.9244 60.6075 50.0266 60.1268 50.0266C59.658 50.0266 59.2974 49.9605 59.045 49.8283C58.8046 49.7081 58.6183 49.5458 58.4861 49.3415C58.2698 49.029 58.1616 48.5783 58.1616 47.9893C58.1616 47.6408 58.2577 46.9857 58.4501 46.0241L58.7025 44.6539C58.9068 43.6083 59.009 42.8931 59.009 42.5085C59.009 41.8354 58.8227 41.4989 58.4501 41.4989C57.9813 41.4989 57.5967 41.8414 57.2962 42.5265C57.176 42.7909 57.0738 43.1215 56.9897 43.5181L55.7637 49.666L52.1399 50.0266L54.682 37.0457L58.3058 36.6851L58.1616 37.4063C57.8251 39.2572 57.5125 40.4952 57.2241 41.1202C57.8972 40.4472 58.8527 40.1106 60.0907 40.1106C61.4008 40.1106 62.1761 40.5433 62.4164 41.4087C62.5006 41.6852 62.5427 41.9436 62.5427 42.184C62.5427 42.4243 62.5306 42.6407 62.5066 42.833C62.4946 43.0133 62.4585 43.2717 62.3984 43.6083L62.164 44.9063L61.7494 46.9436C61.6893 47.2201 61.6592 47.4605 61.6592 47.6648Z" fill="url(#paint0_linear_18_907)"/>
<path d="M9.84263 25.8895L10.2584 25.5604L9.91077 25.1213L9.49129 25.4924L9.84263 25.8895ZM9.53614 28.5218L9.8674 28.9359L9.86879 28.9347L9.53614 28.5218ZM6.12865 28.8824L6.04766 29.4064L6.05366 29.4073L6.12865 28.8824ZM2.77525 28.6119L2.81592 29.1406L2.83599 29.1391L2.85588 29.136L2.77525 28.6119ZM2.16226 28.666L1.64069 28.5704L1.51419 29.2604L2.21254 29.1939L2.16226 28.666ZM4.34378 16.7668V16.2366H3.90189L3.8222 16.6712L4.34378 16.7668ZM8.29214 16.7668L8.81385 16.8617L8.92751 16.2366H8.29214V16.7668ZM6.48923 26.6828L5.96752 26.588L5.87005 27.1241L6.4086 27.2069L6.48923 26.6828ZM9.42688 26.2187C9.55063 26.375 9.65492 26.6635 9.65492 27.1696H10.7155C10.7155 26.5459 10.5914 25.981 10.2584 25.5604L9.42688 26.2187ZM9.65492 27.1696C9.65492 27.5611 9.51195 27.8604 9.20349 28.1088L9.86879 28.9347C10.4257 28.4861 10.7155 27.8839 10.7155 27.1696H9.65492ZM9.20489 28.1077C8.90854 28.3448 8.4577 28.4963 7.78732 28.4963V29.5569C8.60734 29.5569 9.32239 29.3719 9.86739 28.9359L9.20489 28.1077ZM7.78732 28.4963C7.38967 28.4963 6.8642 28.4518 6.20364 28.3574L6.05366 29.4073C6.73927 29.5052 7.31959 29.5569 7.78732 29.5569V28.4963ZM6.20964 28.3583C4.89871 28.1557 4.00205 28.0456 3.56853 28.0456V29.1061C3.90424 29.1061 4.71433 29.2003 6.04766 29.4064L6.20964 28.3583ZM3.56853 28.0456C3.19527 28.0456 2.89483 28.057 2.69462 28.0878L2.85588 29.136C2.96817 29.1188 3.19659 29.1061 3.56853 29.1061V28.0456ZM2.73458 28.0832C2.57379 28.0956 2.3659 28.114 2.11199 28.1381L2.21254 29.1939C2.46343 29.17 2.6642 29.1523 2.81592 29.1406L2.73458 28.0832ZM2.68383 28.7616L4.86535 16.8625L3.8222 16.6712L1.64069 28.5704L2.68383 28.7616ZM4.34378 17.2971H8.29214V16.2366H4.34378V17.2971ZM7.77042 16.672L5.96752 26.588L7.01094 26.7777L8.81385 16.8617L7.77042 16.672ZM6.4086 27.2069C6.58902 27.2347 6.7663 27.2491 6.93996 27.2491V26.1886C6.82515 26.1886 6.70195 26.179 6.56986 26.1587L6.4086 27.2069ZM6.93996 27.2491H7.39068V26.1886H6.93996V27.2491ZM7.39068 27.2491C8.50126 27.2491 9.45263 26.9425 10.194 26.2867L9.49129 25.4924C8.98263 25.9423 8.29936 26.1886 7.39068 26.1886V27.2491ZM12.8157 20.9316L13.2192 21.2756L13.2195 21.2753L12.8157 20.9316ZM19.9913 20.0121L20.348 19.6197L19.9913 20.0121ZM19.4324 27.3679L19.0431 27.0079L19.0408 27.0104L19.4324 27.3679ZM15.3939 22.4099L14.8786 22.2843L14.8766 22.2935L15.3939 22.4099ZM15.0153 24.285L14.4941 24.1872L15.0153 24.285ZM14.9432 27.6384L14.4634 27.8641L14.4687 27.8754L14.4745 27.8865L14.9432 27.6384ZM16.1872 27.7465L15.8736 27.3189L15.8665 27.3241L15.8596 27.3296L16.1872 27.7465ZM16.6559 27.0795L16.1696 26.868L16.1676 26.8728L16.6559 27.0795ZM17.305 24.7177L17.8261 24.8157L17.8263 24.8146L17.305 24.7177ZM17.6115 22.5001L17.082 22.4715L17.0816 22.4786L17.0814 22.4858L17.6115 22.5001ZM17.5033 20.5169L17.0187 20.7322L17.0187 20.7322L17.5033 20.5169ZM16.2773 20.4448L16.6391 20.8324H16.6391L16.2773 20.4448ZM15.3218 28.4963C14.0736 28.4963 13.2361 28.2021 12.7104 27.7074C12.1906 27.2184 11.8856 26.4483 11.8856 25.2946H10.8251C10.8251 26.6289 11.1812 27.7248 11.9836 28.4798C12.78 29.2291 13.9257 29.5569 15.3218 29.5569V28.4963ZM11.8856 25.2946C11.8856 23.6303 12.3416 22.305 13.2192 21.2756L12.4122 20.5875C11.3428 21.8418 10.8251 23.4252 10.8251 25.2946H11.8856ZM13.2195 21.2753C14.1392 20.1951 15.3956 19.6409 17.0526 19.6409V18.5804C15.1277 18.5804 13.5596 19.2401 12.412 20.5878L13.2195 21.2753ZM17.0526 19.6409C18.2777 19.6409 19.1074 19.9252 19.6346 20.4044L20.348 19.6197C19.5531 18.897 18.4236 18.5804 17.0526 18.5804V19.6409ZM19.6346 20.4044C20.1456 20.869 20.4526 21.6306 20.4526 22.8066H21.5132C21.5132 21.4584 21.1591 20.3571 20.348 19.6197L19.6346 20.4044ZM20.4526 22.8066C20.4526 24.6327 19.964 26.012 19.0431 27.0079L19.8217 27.7279C20.9681 26.4883 21.5132 24.8266 21.5132 22.8066H20.4526ZM19.0408 27.0104C18.1476 27.9886 16.9291 28.4963 15.3218 28.4963V29.5569C17.176 29.5569 18.6979 28.9588 19.824 27.7255L19.0408 27.0104ZM15.306 20.9686C15.1447 21.3314 15.0035 21.7726 14.8787 22.2843L15.9091 22.5356C16.0246 22.0617 16.1479 21.6856 16.2751 21.3993L15.306 20.9686ZM14.8766 22.2935C14.7664 22.783 14.6389 23.4149 14.4941 24.1872L15.5365 24.3827C15.6801 23.6165 15.805 22.9984 15.9112 22.5263L14.8766 22.2935ZM14.4941 24.1872C14.3427 24.9946 14.2687 25.8875 14.2687 26.8631H15.3292C15.3292 25.9397 15.3994 25.1137 15.5365 24.3827L14.4941 24.1872ZM14.2687 26.8631C14.2687 27.2255 14.3238 27.5675 14.4634 27.8641L15.423 27.4126C15.3702 27.3006 15.3292 27.1257 15.3292 26.8631H14.2687ZM14.4745 27.8865C14.6944 28.3017 15.0934 28.4751 15.5201 28.4751V27.4146C15.4458 27.4146 15.419 27.4008 15.4173 27.3999C15.4165 27.3995 15.4177 27.4001 15.4187 27.4012C15.4196 27.4021 15.4168 27.3997 15.4118 27.3903L14.4745 27.8865ZM15.5201 28.4751C15.8803 28.4751 16.2288 28.3882 16.5148 28.1635L15.8596 27.3296C15.8089 27.3693 15.7127 27.4146 15.5201 27.4146V28.4751ZM16.5007 28.1741C16.7882 27.9634 16.9926 27.6445 17.1443 27.2861L16.1676 26.8728C16.0548 27.1394 15.9467 27.2653 15.8736 27.3189L16.5007 28.1741ZM17.1422 27.2909C17.4058 26.6847 17.6309 25.8527 17.8261 24.8157L16.7839 24.6196C16.5944 25.6259 16.3869 26.3684 16.1696 26.868L17.1422 27.2909ZM17.8263 24.8146C18.0187 23.7804 18.1283 23.0049 18.1415 22.5144L17.0814 22.4858C17.0706 22.8847 16.9759 23.5876 16.7836 24.6207L17.8263 24.8146ZM18.141 22.5287C18.1653 22.0777 18.1778 21.6831 18.1778 21.3462H17.1173C17.1173 21.6584 17.1057 22.033 17.082 22.4715L18.141 22.5287ZM18.1778 21.3462C18.1778 20.9645 18.124 20.6079 17.9879 20.3015L17.0187 20.7322C17.0749 20.8585 17.1173 21.0549 17.1173 21.3462H18.1778ZM17.9879 20.3015C17.8991 20.1019 17.757 19.9306 17.5577 19.8149C17.3639 19.7024 17.1502 19.6621 16.9444 19.6621V20.7226C17.015 20.7226 17.0327 20.7365 17.0252 20.7321C17.0215 20.7299 17.0172 20.7264 17.0143 20.723C17.0117 20.72 17.014 20.7216 17.0187 20.7322L17.9879 20.3015ZM16.9444 19.6621C16.5563 19.6621 16.2015 19.7902 15.9155 20.0571L16.6391 20.8324C16.7137 20.7628 16.8037 20.7226 16.9444 20.7226V19.6621ZM15.9155 20.0571C15.6655 20.2904 15.4674 20.6054 15.306 20.9686L16.2751 21.3993C16.4021 21.1135 16.5285 20.9357 16.6391 20.8324L15.9155 20.0571ZM28.4647 19.7777L28.0689 19.4247L27.8786 19.6381L27.9523 19.9143L28.4647 19.7777ZM31.2051 19.4532L31.5102 19.0195L31.2051 19.4532ZM31.4935 21.7609L32.0029 21.9083L31.4935 21.7609ZM30.9887 23.1491L31.4728 23.3657L31.4748 23.361L30.9887 23.1491ZM29.5284 25.6552L29.1033 25.3381L29.0991 25.3438L29.5284 25.6552ZM27.1846 28.1612L26.8664 27.737L26.8632 27.7394L27.1846 28.1612ZM23.1822 28.7922L22.6521 28.8074L22.6622 29.1611L22.9928 29.2875L23.1822 28.7922ZM22.9297 23.6539L22.4017 23.7032L22.4025 23.7102L22.9297 23.6539ZM22.6954 21.5626L22.1691 21.6284L22.1707 21.6394L22.6954 21.5626ZM21.9742 19.7777L21.6263 19.3776L21.089 19.8447L21.6905 20.2257L21.9742 19.7777ZM22.7855 19.2729L22.9668 19.7714L22.9787 19.7667L22.7855 19.2729ZM25.4718 19.7777L25.0761 20.1307L25.081 20.136L25.4718 19.7777ZM26.175 21.5986L25.6469 21.6474L25.6479 21.6563L26.175 21.5986ZM26.193 27.2598L25.6638 27.226L25.593 28.3358L26.4999 27.6922L26.193 27.2598ZM27.3469 25.6552L27.8226 25.8895L27.8242 25.8861L27.3469 25.6552ZM28.4466 21.9592L27.922 21.8821L27.9217 21.8842L28.4466 21.9592ZM28.8604 20.1306C29.1409 19.8161 29.5283 19.6409 30.0873 19.6409V18.5804C29.276 18.5804 28.5817 18.8498 28.0689 19.4247L28.8604 20.1306ZM30.0873 19.6409C30.4057 19.6409 30.6703 19.7252 30.8999 19.8868L31.5102 19.0195C31.0909 18.7244 30.6103 18.5804 30.0873 18.5804V19.6409ZM30.8999 19.8868C31.069 20.0058 31.1616 20.1664 31.1616 20.4448H32.2221C32.2221 19.8578 31.9902 19.3573 31.5102 19.0195L30.8999 19.8868ZM31.1616 20.4448C31.1616 20.8096 31.1043 21.1985 30.9842 21.6134L32.0029 21.9083C32.1472 21.4098 32.2221 20.9213 32.2221 20.4448H31.1616ZM30.9842 21.6134C30.8588 22.0467 30.6985 22.4879 30.5026 22.9372L31.4748 23.361C31.6876 22.8729 31.8639 22.3886 32.0029 21.9083L30.9842 21.6134ZM30.5047 22.9326C30.111 23.8126 29.6436 24.6139 29.1034 25.3381L29.9534 25.9722C30.543 25.182 31.0491 24.3126 31.4728 23.3657L30.5047 22.9326ZM29.0991 25.3438C28.3254 26.4106 27.5799 27.2019 26.8664 27.737L27.5028 28.5854C28.3278 27.9666 29.1448 27.0873 29.9576 25.9665L29.0991 25.3438ZM26.8632 27.7394C26.1841 28.2568 25.5013 28.4963 24.8048 28.4963V29.5569C25.767 29.5569 26.6707 29.2194 27.506 28.583L26.8632 27.7394ZM24.8048 28.4963C24.1653 28.4963 23.6962 28.4211 23.3715 28.2969L22.9928 29.2875C23.4854 29.4759 24.0981 29.5569 24.8048 29.5569V28.4963ZM23.7122 28.7771C23.6402 26.2553 23.5557 24.5227 23.457 23.5977L22.4025 23.7102C22.4961 24.5881 22.5799 26.281 22.6521 28.8074L23.7122 28.7771ZM23.4577 23.6047C23.3733 22.7001 23.2942 21.9923 23.22 21.4858L22.1707 21.6394C22.2408 22.1185 22.3179 22.8048 22.4018 23.7032L23.4577 23.6047ZM23.2215 21.4968C23.1583 20.9911 23.0604 20.5524 22.9166 20.1965C22.7746 19.8452 22.5683 19.5263 22.2579 19.3297L21.6905 20.2257C21.7407 20.2575 21.8349 20.3503 21.9333 20.5938C22.0299 20.833 22.1122 21.1725 22.1692 21.6283L23.2215 21.4968ZM22.3222 20.1778C22.5636 19.9679 22.7788 19.8396 22.9667 19.7712L22.6043 18.7745C22.2634 18.8985 21.9377 19.1067 21.6263 19.3776L22.3222 20.1778ZM22.9787 19.7667C23.1613 19.6953 23.4958 19.6409 24.0295 19.6409V18.5804C23.4575 18.5804 22.9626 18.6342 22.5923 18.7791L22.9787 19.7667ZM24.0295 19.6409C24.4341 19.6409 24.7738 19.7917 25.0761 20.1306L25.8676 19.4247C25.3766 18.8742 24.7547 18.5804 24.0295 18.5804V19.6409ZM25.081 20.136C25.3766 20.4585 25.5819 20.9429 25.647 21.6474L26.703 21.5499C26.6238 20.6918 26.3604 19.9623 25.8627 19.4194L25.081 20.136ZM25.6479 21.6563C25.7295 22.4029 25.7709 23.2366 25.7709 24.1588H26.8314C26.8314 23.2059 26.7887 22.3329 26.7021 21.541L25.6479 21.6563ZM25.7709 24.1588C25.7709 25.083 25.7354 26.1052 25.6638 27.226L26.7222 27.2935C26.7949 26.1547 26.8314 25.1096 26.8314 24.1588H25.7709ZM26.4999 27.6922C26.9853 27.3477 27.4177 26.7114 27.8226 25.8895L26.8712 25.4209C26.4827 26.2096 26.146 26.6429 25.8861 26.8273L26.4999 27.6922ZM27.8242 25.8861C28.391 24.7147 28.7723 23.4294 28.9716 22.0342L27.9217 21.8842C27.7364 23.1814 27.3844 24.3601 26.8695 25.4242L27.8242 25.8861ZM28.9713 22.0364C29.0353 21.601 29.067 21.1545 29.067 20.6972H28.0065C28.0065 21.1053 27.9782 21.5001 27.922 21.8821L28.9713 22.0364ZM29.067 20.6972C29.067 20.2628 29.0446 19.8946 28.977 19.6411L27.9523 19.9143C27.9808 20.0213 28.0065 20.2662 28.0065 20.6972H29.067ZM9.33782 41.3366L8.86354 41.0995L8.59591 41.6347L9.15947 41.836L9.33782 41.3366ZM9.55417 39.5157L9.03295 39.6134L9.0342 39.6197L9.55417 39.5157ZM9.37388 39.0109L8.91456 39.2758L8.91585 39.278L9.37388 39.0109ZM7.35463 39.0289L7.70384 39.428L7.70936 39.423L7.35463 39.0289ZM7.12025 41.2284L6.71893 41.575L6.72736 41.5848L6.73626 41.5941L7.12025 41.2284ZM9.17556 42.6888L9.44442 42.2317H9.44442L9.17556 42.6888ZM10.3294 43.4821L9.99816 43.8961L9.9989 43.8967L10.3294 43.4821ZM11.0866 47.4845L10.6376 47.2025L10.6358 47.2054L11.0866 47.4845ZM9.8246 48.8006L9.5192 48.3671L9.5181 48.3679L9.8246 48.8006ZM2.9916 49.4316L2.70525 49.878L2.71132 49.8818L2.9916 49.4316ZM3.31612 45.8439L3.47958 46.3485L3.49129 46.3444L3.31612 45.8439ZM5.40749 45.952L5.90147 46.1448L6.09744 45.6426L5.59212 45.4549L5.40749 45.952ZM7.35463 48.3138L7.00631 47.9139L6.9999 47.9197L7.35463 48.3138ZM7.55295 46.3306L7.1515 46.6773L7.16058 46.6873L7.55295 46.3306ZM6.68755 45.6275L6.40782 46.0782L6.41939 46.085L6.68755 45.6275ZM5.55172 44.9965L5.30887 45.4679L5.31458 45.4708L5.55172 44.9965ZM4.43392 44.2573L4.77202 43.8488L4.76739 43.845L4.43392 44.2573ZM3.71276 39.8582L4.16015 40.1429L4.16299 40.1384L3.71276 39.8582ZM5.02888 38.506L5.32303 38.9473L5.32639 38.945L5.02888 38.506ZM11.5915 38.0012L11.3112 38.4514L11.3149 38.4537L11.5915 38.0012ZM11.8799 41.0481L12.2081 41.4647L12.2151 41.459L11.8799 41.0481ZM9.8121 41.5737C10.022 41.154 10.1385 40.7245 10.1385 40.2909H9.07799C9.07799 40.5304 9.01423 40.7981 8.86354 41.0995L9.8121 41.5737ZM10.1385 40.2909C10.1385 39.9431 10.1205 39.6435 10.0741 39.4117L9.0342 39.6197C9.05996 39.7484 9.07799 39.9656 9.07799 40.2909H10.1385ZM10.0754 39.4179C10.03 39.176 9.9514 38.9485 9.83191 38.7437L8.91585 39.278C8.96463 39.3617 9.00624 39.4707 9.03299 39.6134L10.0754 39.4179ZM9.83319 38.7459C9.55826 38.2693 9.11279 38.0118 8.56257 38.0118V39.0724C8.73352 39.0724 8.82891 39.1274 8.91457 39.2758L9.83319 38.7459ZM8.56257 38.0118C7.97451 38.0118 7.44826 38.2312 6.9999 38.6347L7.70936 39.423C7.98215 39.1775 8.2612 39.0724 8.56257 39.0724V38.0118ZM7.00544 38.6298C6.50125 39.071 6.24743 39.6513 6.24743 40.327H7.30796C7.30796 39.945 7.43876 39.6599 7.70381 39.4279L7.00544 38.6298ZM6.24743 40.327C6.24743 40.796 6.41085 41.2183 6.71893 41.575L7.52157 40.8818C7.37291 40.7097 7.30796 40.531 7.30796 40.327H6.24743ZM6.73626 41.5941C7.00932 41.8808 7.34187 42.1517 7.72756 42.4088L8.31584 41.5264C7.98037 41.3028 7.71196 41.0808 7.50423 40.8627L6.73626 41.5941ZM7.72756 42.4088C8.09715 42.6552 8.49026 42.9009 8.9067 43.1458L9.44442 42.2317C9.04354 41.9959 8.66742 41.7608 8.31584 41.5264L7.72756 42.4088ZM8.9067 43.1458C9.29415 43.3737 9.65785 43.6239 9.99816 43.8961L10.6607 43.068C10.2798 42.7633 9.87429 42.4846 9.44442 42.2317L8.9067 43.1458ZM9.9989 43.8967C10.7291 44.4787 11.0432 45.1115 11.0432 45.8078H12.1037C12.1037 44.7253 11.5884 43.8075 10.6599 43.0674L9.9989 43.8967ZM11.0432 45.8078C11.0432 46.3074 10.9099 46.7688 10.6376 47.2025L11.5357 47.7665C11.9124 47.1665 12.1037 46.5101 12.1037 45.8078H11.0432ZM10.6358 47.2054C10.3641 47.6442 9.99494 48.032 9.5192 48.3671L10.13 49.2341C10.712 48.8241 11.1842 48.3344 11.5375 47.7636L10.6358 47.2054ZM9.5181 48.3679C8.46108 49.1166 7.22999 49.4963 5.80413 49.4963V50.5569C7.43119 50.5569 8.88042 50.1192 10.1311 49.2333L9.5181 48.3679ZM5.80413 49.4963C4.60749 49.4963 3.78649 49.3019 3.27187 48.9815L2.71132 49.8818C3.47076 50.3546 4.52478 50.5569 5.80413 50.5569V49.4963ZM3.27792 48.9853C2.75201 48.6479 2.56632 48.2878 2.56632 47.8992H1.50579C1.50579 48.7365 1.95713 49.398 2.70528 49.878L3.27792 48.9853ZM2.56632 47.8992C2.56632 47.4173 2.66071 47.0789 2.80618 46.8454C2.94592 46.621 3.15769 46.4526 3.47954 46.3483L3.1527 45.3394C2.62117 45.5116 2.19291 45.824 1.90597 46.2847C1.62475 46.7362 1.50579 47.2873 1.50579 47.8992H2.56632ZM3.49129 46.3444C3.65729 46.2863 3.89387 46.2479 4.21757 46.2479V45.1874C3.82011 45.1874 3.45572 45.2332 3.14095 45.3434L3.49129 46.3444ZM4.21757 46.2479C4.51573 46.2479 4.84952 46.3105 5.22286 46.4491L5.59212 45.4549C5.1241 45.2811 4.66461 45.1874 4.21757 45.1874V46.2479ZM4.91351 45.7593C4.70166 46.3021 4.58876 46.8364 4.58876 47.3583H5.64929C5.64929 46.9907 5.7287 46.5875 5.90147 46.1448L4.91351 45.7593ZM4.58876 47.3583C4.58876 47.886 4.67986 48.3769 4.94408 48.7477C5.23186 49.1516 5.66423 49.3309 6.14668 49.3309V48.2704C5.94403 48.2704 5.86257 48.2092 5.8078 48.1323C5.72946 48.0224 5.64929 47.7922 5.64929 47.3583H4.58876ZM6.14668 49.3309C6.73474 49.3309 7.26099 49.1115 7.70936 48.708L6.9999 47.9197C6.7271 48.1652 6.44805 48.2704 6.14668 48.2704V49.3309ZM7.70289 48.7137C8.14633 48.3275 8.44379 47.8509 8.44379 47.2862H7.38326C7.38326 47.4426 7.30812 47.6511 7.00636 47.914L7.70289 48.7137ZM8.44379 47.2862C8.44379 46.7878 8.2785 46.3405 7.94531 45.9739L7.16058 46.6873C7.30816 46.8497 7.38326 47.0393 7.38326 47.2862H8.44379ZM7.95426 45.9841C7.68247 45.6693 7.34675 45.3993 6.95572 45.1701L6.41939 46.085C6.72548 46.2644 6.96669 46.4631 7.15163 46.6772L7.95426 45.9841ZM6.96719 45.177C6.60339 44.9512 6.21044 44.733 5.78886 44.5222L5.31458 45.4708C5.71032 45.6686 6.07459 45.8712 6.40791 46.078L6.96719 45.177ZM5.79456 44.5251C5.43231 44.3385 5.09159 44.1133 4.772 43.8488L4.09584 44.6658C4.47338 44.9783 4.87785 45.2458 5.30888 45.4679L5.79456 44.5251ZM4.76739 43.845C4.07544 43.2854 3.73821 42.5779 3.73821 41.6791H2.67768C2.67768 42.8958 3.15777 43.9071 4.10045 44.6696L4.76739 43.845ZM3.73821 41.6791C3.73821 41.0852 3.88272 40.5788 4.16012 40.1429L3.26539 39.5735C2.86971 40.1953 2.67768 40.9029 2.67768 41.6791H3.73821ZM4.16299 40.1384C4.45875 39.663 4.84374 39.2668 5.32302 38.9472L4.73474 38.0648C4.13228 38.4665 3.63986 38.9717 3.26253 39.5781L4.16299 40.1384ZM5.32639 38.945C6.31923 38.2721 7.4173 37.9365 8.63469 37.9365V36.876C7.20782 36.876 5.90201 37.2737 4.73137 38.0671L5.32639 38.945ZM8.63469 37.9365C9.93664 37.9365 10.8011 38.1338 11.3112 38.4514L11.8717 37.5511C11.1077 37.0754 10.001 36.876 8.63469 36.876V37.9365ZM11.3149 38.4537C11.8308 38.7689 12.0348 39.1444 12.0348 39.6058H13.0953C13.0953 38.7211 12.6502 38.0268 11.868 37.5488L11.3149 38.4537ZM12.0348 39.6058C12.0348 40.0353 11.8781 40.3653 11.5447 40.6372L12.2151 41.459C12.7952 40.9858 13.0953 40.3542 13.0953 39.6058H12.0348ZM11.5517 40.6316C11.2436 40.8744 10.9192 40.9866 10.5638 40.9866V42.0472C11.1699 42.0472 11.723 41.8469 12.2081 41.4647L11.5517 40.6316ZM10.5638 40.9866C10.1242 40.9866 9.77951 40.9313 9.51617 40.8372L9.15947 41.836C9.56922 41.9823 10.0419 42.0472 10.5638 42.0472V40.9866ZM20.2426 46.6191L20.5407 46.1806L20.0791 45.8667L19.7893 46.3439L20.2426 46.6191ZM20.3507 48.7105L20.7665 49.0396L20.3507 48.7105ZM19.4493 49.4316L19.6923 49.9029L19.6925 49.9028L19.4493 49.4316ZM15.0682 49.7562L14.882 50.2527L14.886 50.2541L15.0682 49.7562ZM13.8603 48.9809L14.2421 48.6128L14.2352 48.606L13.8603 48.9809ZM14.3831 41.8955L14.779 42.2483L14.7795 42.2478L14.3831 41.8955ZM21.2883 40.8318L21.6334 40.4292L21.6319 40.428L21.2883 40.8318ZM16.4384 45.4292V44.8989H15.9835L15.9143 45.3486L16.4384 45.4292ZM16.7269 47.4484L16.3722 47.8426L16.3825 47.8519L16.3933 47.8606L16.7269 47.4484ZM19.1969 47.4484L19.4043 47.9365L19.4101 47.934L19.1969 47.4484ZM16.5646 44.6539L16.0429 44.5595L15.9298 45.1842H16.5646V44.6539ZM18.5839 43.8607L18.2044 43.4902L18.196 43.4992L18.5839 43.8607ZM19.1608 41.2645L18.7092 41.5424L18.722 41.5631L18.7366 41.5826L19.1608 41.2645ZM18.1332 41.1563L18.3421 41.6437L18.3498 41.6404L18.3574 41.6368L18.1332 41.1563ZM17.6103 41.6611L18.0366 41.9765L18.0427 41.9683L18.0485 41.9598L17.6103 41.6611ZM19.9444 47.0576C20.0622 47.1377 20.163 47.2787 20.163 47.6107H21.2236C21.2236 47.0292 21.0239 46.5092 20.5407 46.1806L19.9444 47.0576ZM20.163 47.6107C20.163 47.9617 20.0747 48.2049 19.935 48.3813L20.7665 49.0396C21.0836 48.6391 21.2236 48.1491 21.2236 47.6107H20.163ZM19.935 48.3813C19.7595 48.603 19.5211 48.7979 19.2061 48.9604L19.6925 49.9028C20.1227 49.6808 20.4853 49.3949 20.7665 49.0396L19.935 48.3813ZM19.2063 48.9603C18.5088 49.32 17.7925 49.4963 17.0514 49.4963V50.5569C17.969 50.5569 18.8513 50.3366 19.6923 49.9029L19.2063 48.9603ZM17.0514 49.4963C16.2524 49.4963 15.661 49.4084 15.2504 49.2582L14.886 50.2541C15.461 50.4645 16.1918 50.5569 17.0514 50.5569V49.4963ZM15.2544 49.2597C14.8402 49.1043 14.5065 48.8871 14.242 48.6128L13.4786 49.349C13.8631 49.7478 14.3347 50.0474 14.8821 50.2527L15.2544 49.2597ZM14.2352 48.606C13.7245 48.0952 13.435 47.345 13.435 46.2766H12.3745C12.3745 47.5399 12.722 48.5925 13.4853 49.3559L14.2352 48.606ZM13.435 46.2766C13.435 44.5611 13.8984 43.2363 14.779 42.2483L13.9873 41.5427C12.8967 42.7663 12.3745 44.3621 12.3745 46.2766H13.435ZM14.7795 42.2478C15.7205 41.1891 17.0147 40.6409 18.7281 40.6409V39.5804C16.7636 39.5804 15.1612 40.222 13.9868 41.5432L14.7795 42.2478ZM18.7281 40.6409C19.8089 40.6409 20.5155 40.8705 20.9446 41.2356L21.6319 40.428C20.9312 39.8316 19.931 39.5804 18.7281 39.5804V40.6409ZM20.9432 41.2344C21.2381 41.4872 21.389 41.8108 21.389 42.2561H22.4495C22.4495 41.5234 22.1797 40.8975 21.6334 40.4292L20.9432 41.2344ZM21.389 42.2561C21.389 43.1251 21.0327 43.7432 20.2834 44.177C19.49 44.6363 18.2316 44.8989 16.4384 44.8989V45.9595C18.2992 45.9595 19.7812 45.6932 20.8148 45.0948C21.8924 44.4709 22.4495 43.5025 22.4495 42.2561H21.389ZM15.9143 45.3486C15.8629 45.6828 15.8361 45.9985 15.8361 46.2946H16.8966C16.8966 46.0618 16.9178 45.8006 16.9625 45.5098L15.9143 45.3486ZM15.8361 46.2946C15.8361 46.8964 15.9621 47.4735 16.3722 47.8426L17.0816 47.0543C17.0109 46.9907 16.8966 46.7985 16.8966 46.2946H15.8361ZM16.3933 47.8606C16.7719 48.1671 17.261 48.2852 17.7906 48.2852V47.2247C17.4068 47.2247 17.1867 47.1384 17.0606 47.0363L16.3933 47.8606ZM17.7906 48.2852C18.3282 48.2852 18.8673 48.1647 19.4043 47.9365L18.9895 46.9604C18.5649 47.1409 18.1666 47.2247 17.7906 47.2247V48.2852ZM19.4101 47.934C19.9668 47.6895 20.4176 47.3525 20.6958 46.8943L19.7893 46.3439C19.6589 46.5588 19.4125 46.7747 18.9837 46.9629L19.4101 47.934ZM16.5646 45.1842C17.5363 45.1842 18.3606 44.8781 18.9718 44.2222L18.196 43.4992C17.8216 43.9009 17.2998 44.1237 16.5646 44.1237V45.1842ZM18.9633 44.2311C19.5667 43.613 19.8534 42.818 19.8534 41.8955H18.7928C18.7928 42.5836 18.5867 43.0987 18.2045 43.4903L18.9633 44.2311ZM19.8534 41.8955C19.8534 41.562 19.7901 41.2197 19.585 40.9463L18.7366 41.5826C18.7479 41.5977 18.7928 41.6761 18.7928 41.8955H19.8534ZM19.6124 40.9866C19.4074 40.6533 19.0736 40.4998 18.7101 40.4998V41.5604C18.7275 41.5604 18.7366 41.562 18.7391 41.5626C18.7413 41.5631 18.7379 41.5626 18.7314 41.5592C18.7247 41.5557 18.7182 41.551 18.7131 41.5462C18.7082 41.5415 18.7073 41.5393 18.7092 41.5424L19.6124 40.9866ZM18.7101 40.4998C18.4304 40.4998 18.1614 40.558 17.9089 40.6758L18.3574 41.6368C18.4656 41.5864 18.5811 41.5604 18.7101 41.5604V40.4998ZM17.9243 40.6689C17.6169 40.8006 17.3721 41.0692 17.1722 41.3624L18.0485 41.9598C18.2092 41.7241 18.3129 41.6562 18.3421 41.6437L17.9243 40.6689ZM17.1841 41.3457C16.6648 42.0475 16.299 43.1445 16.0429 44.5595L17.0864 44.7484C17.3351 43.3749 17.6665 42.4767 18.0366 41.9765L17.1841 41.3457ZM23.3116 49.1251L22.9143 49.4766L22.922 49.4848L23.3116 49.1251ZM22.6986 47.9172L22.1833 48.0429L22.1865 48.0546L22.6986 47.9172ZM22.933 43.6623L23.4292 43.8494L22.933 43.6623ZM24.1049 41.7693L24.4885 42.1355L24.4922 42.1314L24.1049 41.7693ZM29.8021 40.4171L29.5807 40.899L29.7114 40.959L29.8545 40.9448L29.8021 40.4171ZM32.885 40.1106L33.406 40.2095L33.5382 39.5128L32.8326 39.583L32.885 40.1106ZM31.5509 47.1419L32.0653 47.2706L32.069 47.2558L32.0718 47.2408L31.5509 47.1419ZM31.7312 48.404L31.3426 48.7648L31.3493 48.772L31.3562 48.7789L31.7312 48.404ZM32.3441 48.6924L32.8529 48.8421L33.0333 48.2285L32.3969 48.1648L32.3441 48.6924ZM31.4968 49.666L31.2446 49.1995L31.2393 49.2025L31.4968 49.666ZM28.8645 49.7381L29.1276 49.2777L29.1221 49.2746L28.8645 49.7381ZM28.2335 48.9989L28.7403 48.843L28.4038 47.7492L27.7869 48.7131L28.2335 48.9989ZM27.3321 49.7381L27.5579 50.2179L27.3321 49.7381ZM24.4114 49.8102L24.575 49.3058L24.4114 49.8102ZM27.1157 41.8054L26.6745 41.5112L26.6687 41.5199L26.6633 41.5288L27.1157 41.8054ZM26.7371 42.6888L27.2402 42.8565L27.2418 42.8516L26.7371 42.6888ZM26.2503 44.708L25.7311 44.6004L25.7301 44.6053L26.2503 44.708ZM26.1241 48.5662L25.6555 48.8144L26.1241 48.5662ZM27.5665 48.3319L27.1472 48.0072L27.1456 48.0092L27.5665 48.3319ZM28.1614 46.7994L27.6396 46.705L27.6384 46.7122L28.1614 46.7994ZM29.1169 41.5169L29.6387 41.6113L29.6929 41.3121L29.462 41.1143L29.1169 41.5169ZM27.5845 41.3366L27.3349 40.8687L27.3281 40.8724L27.3214 40.8762L27.5845 41.3366ZM23.7088 48.7738C23.4975 48.5349 23.3264 48.2107 23.2108 47.7798L22.1865 48.0546C22.3353 48.6093 22.5728 49.0903 22.9144 49.4765L23.7088 48.7738ZM23.2138 47.7915C23.1077 47.3566 23.0486 46.7547 23.0486 45.9701H21.9881C21.9881 46.7961 22.0491 47.4922 22.1834 48.0428L23.2138 47.7915ZM23.0486 45.9701C23.0486 45.2269 23.1759 44.5211 23.4292 43.8494L22.4368 43.4753C22.1372 44.2699 21.9881 45.1027 21.9881 45.9701H23.0486ZM23.4292 43.8494C23.6823 43.178 24.0363 42.6091 24.4884 42.1354L23.7213 41.4032C23.1639 41.9871 22.7366 42.6803 22.4368 43.4753L23.4292 43.8494ZM24.4922 42.1314C25.4124 41.1471 26.6349 40.6409 28.2155 40.6409V39.5804C26.3826 39.5804 24.8647 40.1799 23.7175 41.4072L24.4922 42.1314ZM28.2155 40.6409C28.7708 40.6409 29.2206 40.7335 29.5807 40.899L30.0234 39.9353C29.4941 39.692 28.8862 39.5804 28.2155 39.5804V40.6409ZM29.8545 40.9448L32.9375 40.6383L32.8326 39.583L29.7496 39.8895L29.8545 40.9448ZM32.364 40.0118L31.0299 47.0431L32.0718 47.2408L33.406 40.2095L32.364 40.0118ZM31.0364 47.0133C30.9847 47.2201 30.9665 47.4752 30.9665 47.7549H32.027C32.027 47.5059 32.0449 47.3522 32.0653 47.2706L31.0364 47.0133ZM30.9665 47.7549C30.9665 48.1315 31.0815 48.4836 31.3426 48.7648L32.1197 48.0432C32.0683 47.9878 32.027 47.9073 32.027 47.7549H30.9665ZM31.3562 48.7789C31.6125 49.0352 31.9312 49.1841 32.2914 49.2201L32.3969 48.1648C32.2763 48.1528 32.1864 48.1093 32.1061 48.029L31.3562 48.7789ZM31.8354 48.5428C31.7625 48.7909 31.59 49.0129 31.2446 49.1995L31.7489 50.1325C32.293 49.8384 32.6854 49.4113 32.8529 48.8421L31.8354 48.5428ZM31.2393 49.2025C30.885 49.3993 30.5108 49.4963 30.1085 49.4963V50.5569C30.6919 50.5569 31.2432 50.4135 31.7543 50.1296L31.2393 49.2025ZM30.1085 49.4963C29.6835 49.4963 29.3651 49.4134 29.1276 49.2777L28.6015 50.1985C29.0371 50.4474 29.5481 50.5569 30.1085 50.5569V49.4963ZM29.1221 49.2746C28.8997 49.1511 28.7907 49.0066 28.7403 48.843L27.7267 49.1549C27.8687 49.6163 28.1803 49.9646 28.607 50.2017L29.1221 49.2746ZM27.7869 48.7131C27.6611 48.9097 27.4484 49.0974 27.1063 49.2583L27.5579 50.2179C28.0331 49.9943 28.4213 49.6892 28.6802 49.2848L27.7869 48.7131ZM27.1063 49.2583C26.7823 49.4108 26.3817 49.4963 25.8898 49.4963V50.5569C26.5036 50.5569 27.0646 50.4501 27.5579 50.2179L27.1063 49.2583ZM25.8898 49.4963C25.3959 49.4963 24.9593 49.4305 24.575 49.3058L24.2478 50.3146C24.7529 50.4785 25.3019 50.5569 25.8898 50.5569V49.4963ZM24.575 49.3058C24.208 49.1868 23.922 49.0047 23.7012 48.7655L22.922 49.4848C23.2781 49.8706 23.7254 50.1452 24.2478 50.3146L24.575 49.3058ZM26.6633 41.5288C26.5008 41.7947 26.3594 42.1326 26.2325 42.526L27.2418 42.8516C27.3553 42.4997 27.4662 42.2487 27.5682 42.0819L26.6633 41.5288ZM26.2341 42.5211C26.1027 42.9151 25.935 43.617 25.7311 44.6004L26.7696 44.8157C26.9743 43.8278 27.1311 43.1836 27.2402 42.8565L26.2341 42.5211ZM25.7301 44.6053C25.5337 45.5997 25.4316 46.4714 25.4316 47.2141H26.4921C26.4921 46.5625 26.5824 45.7635 26.7705 44.8108L25.7301 44.6053ZM25.4316 47.2141C25.4316 47.5739 25.4454 47.8839 25.4759 48.1381C25.5047 48.3781 25.5539 48.6225 25.6555 48.8144L26.5928 48.3181C26.5929 48.3183 26.582 48.2966 26.5678 48.2393C26.5542 48.1844 26.5407 48.1097 26.5289 48.0118C26.5053 47.8153 26.4921 47.5514 26.4921 47.2141H25.4316ZM25.6555 48.8144C25.8333 49.1502 26.1427 49.403 26.5749 49.403V48.3425C26.5742 48.3425 26.5801 48.3425 26.5901 48.3454C26.6003 48.3485 26.6094 48.3531 26.6161 48.3576C26.6293 48.3666 26.6172 48.3642 26.5928 48.3181L25.6555 48.8144ZM26.5749 49.403C27.1554 49.403 27.631 49.1193 27.9873 48.6545L27.1456 48.0092C26.9491 48.2656 26.7636 48.3425 26.5749 48.3425V49.403ZM27.9857 48.6565C28.3449 48.1925 28.5673 47.5897 28.6845 46.8866L27.6384 46.7122C27.5392 47.3072 27.3649 47.726 27.1472 48.0073L27.9857 48.6565ZM28.6832 46.8938L29.6387 41.6113L28.5952 41.4225L27.6396 46.705L28.6832 46.8938ZM29.462 41.1143C29.1245 40.8249 28.7284 40.6621 28.2876 40.6621V41.7226C28.4478 41.7226 28.6046 41.7761 28.7719 41.9195L29.462 41.1143ZM28.2876 40.6621C27.9458 40.6621 27.6171 40.7182 27.3349 40.8687L27.834 41.8045C27.9124 41.7627 28.0525 41.7226 28.2876 41.7226V40.6621ZM27.3214 40.8762C27.0615 41.0247 26.8495 41.2487 26.6745 41.5112L27.5569 42.0995C27.6704 41.9293 27.7709 41.8408 27.8476 41.797L27.3214 40.8762ZM39.5004 44.5999L39.0382 44.3399L38.8411 44.6904L39.1255 44.9748L39.5004 44.5999ZM38.7071 42.238L39.155 42.5221L39.1599 42.5141L38.7071 42.238ZM38.0941 43.9328L38.6175 44.0184L38.6185 44.0119L38.0941 43.9328ZM37.1566 49.666L37.2076 50.1938L37.6141 50.1546L37.68 49.7516L37.1566 49.666ZM33.4246 50.0266L32.9039 49.9264L32.7699 50.6226L33.4756 50.5544L33.4246 50.0266ZM35.2636 40.4712L35.1998 39.9448L34.8159 39.9913L34.7429 40.371L35.2636 40.4712ZM38.2384 40.1106L38.7604 40.2037L38.8862 39.498L38.1746 39.5842L38.2384 40.1106ZM37.9139 41.9316L37.3918 41.8385L38.3909 42.163L37.9139 41.9316ZM42.3851 40.6515L42.0163 41.0326L42.0224 41.0383L42.3851 40.6515ZM42.2228 44.1131L41.8573 43.7288L41.8526 43.7334L42.2228 44.1131ZM39.9626 44.8598C40.434 44.0217 40.6797 43.1577 40.6797 42.2741H39.6192C39.6192 42.953 39.4322 43.6395 39.0382 44.3399L39.9626 44.8598ZM40.6797 42.2741C40.6797 41.9679 40.6274 41.6427 40.4399 41.3826C40.2292 41.0904 39.9143 40.9686 39.5906 40.9686V42.0291C39.6227 42.0291 39.6255 42.0346 39.6125 42.0286C39.5967 42.0213 39.5844 42.0095 39.5796 42.0028C39.5771 41.9993 39.5878 42.0127 39.5989 42.0588C39.6101 42.1053 39.6192 42.175 39.6192 42.2741H40.6797ZM39.5906 40.9686C39.2859 40.9686 39.0239 41.1006 38.8131 41.277C38.6051 41.451 38.4212 41.6885 38.2544 41.962L39.1599 42.5141C39.2936 42.2948 39.4071 42.1627 39.4936 42.0903C39.5773 42.0203 39.6067 42.0291 39.5906 42.0291V40.9686ZM38.2593 41.9541C37.9034 42.5153 37.6758 43.1514 37.5698 43.8536L38.6185 44.0119C38.7048 43.4401 38.8858 42.9464 39.1549 42.522L38.2593 41.9541ZM37.5708 43.8472L36.6333 49.5804L37.68 49.7516L38.6175 44.0184L37.5708 43.8472ZM37.1056 49.1382L33.3736 49.4988L33.4756 50.5544L37.2076 50.1938L37.1056 49.1382ZM33.9453 50.1268L35.7843 40.5714L34.7429 40.371L32.9039 49.9264L33.9453 50.1268ZM35.3274 40.9976L38.3022 40.637L38.1746 39.5842L35.1998 39.9448L35.3274 40.9976ZM37.7163 40.0176L37.3918 41.8385L38.4359 42.0246L38.7604 40.2037L37.7163 40.0176ZM38.3909 42.163C38.6508 41.6274 38.9766 41.2548 39.3565 41.0135C39.7359 40.7725 40.2029 40.6409 40.7805 40.6409V39.5804C40.0359 39.5804 39.3641 39.7522 38.7879 40.1183C38.2123 40.4839 37.7659 41.0217 37.4368 41.7001L38.3909 42.163ZM40.7805 40.6409C41.3886 40.6409 41.7727 40.7968 42.0163 41.0325L42.7538 40.2704C42.2522 39.785 41.5666 39.5804 40.7805 39.5804V40.6409ZM42.0224 41.0383C42.262 41.263 42.4317 41.6496 42.4317 42.3102H43.4923C43.4923 41.4803 43.2773 40.7611 42.7477 40.2646L42.0224 41.0383ZM42.4317 42.3102C42.4317 42.9107 42.2361 43.3686 41.8573 43.7289L42.5883 44.4973C43.1951 43.9201 43.4923 43.176 43.4923 42.3102H42.4317ZM41.8526 43.7334C41.493 44.084 40.983 44.2859 40.2576 44.2859V45.3465C41.1909 45.3465 41.991 45.0796 42.593 44.4927L41.8526 43.7334ZM40.2576 44.2859C40.1096 44.2859 40.0085 44.2708 39.9436 44.2523C39.8798 44.234 39.868 44.2176 39.8754 44.2249L39.1255 44.9748C39.4224 45.2717 39.8558 45.3465 40.2576 45.3465V44.2859ZM49.1367 43.7345L48.6483 43.5278L48.4544 43.9862L48.8995 44.2087L49.1367 43.7345ZM49.3891 42.6888L48.8626 42.625L48.8618 42.6321L48.8611 42.6393L49.3891 42.6888ZM48.1631 41.6251L47.7728 41.266L47.765 41.2748L48.1631 41.6251ZM47.4239 42.7789L46.9471 42.5466L46.9434 42.5547L47.4239 42.7789ZM47.0092 47.3583L46.6003 47.6961L46.6079 47.7049L47.0092 47.3583ZM49.984 46.8895L50.3669 47.2564L50.376 47.2469L50.3847 47.2368L49.984 46.8895ZM50.3446 46.3126L50.5916 45.8434L50.0761 45.5721L49.8543 46.1107L50.3446 46.3126ZM49.9119 49.3415L50.1826 49.7974L50.1836 49.7968L49.9119 49.3415ZM44.8638 41.6972L45.2408 42.07L45.243 42.0678L44.8638 41.6972ZM51.5812 42.1659C51.5812 42.4956 51.4563 42.7493 51.1642 42.9662L51.7966 43.8176C52.346 43.4095 52.6417 42.8459 52.6417 42.1659H51.5812ZM51.1642 42.9662C50.8595 43.1926 50.4279 43.3304 49.8218 43.3304V44.3909C50.5858 44.3909 51.26 44.2162 51.7966 43.8176L51.1642 42.9662ZM49.8218 43.3304C49.5758 43.3304 49.4396 43.2931 49.3738 43.2602L48.8995 44.2087C49.1703 44.3441 49.4908 44.3909 49.8218 44.3909V43.3304ZM49.625 43.9411C49.7811 43.5722 49.8766 43.1696 49.917 42.7383L48.8611 42.6393C48.8294 42.9772 48.7566 43.2718 48.6483 43.5278L49.625 43.9411ZM49.9155 42.7526C49.9623 42.3661 49.9914 42.0786 49.9914 41.9316H48.9309C48.9309 42.0009 48.912 42.2182 48.8626 42.625L49.9155 42.7526ZM49.9914 41.9316C49.9914 41.6345 49.9431 41.3177 49.7668 41.0623C49.566 40.7715 49.2593 40.6441 48.9383 40.6441V41.7046C48.9615 41.7046 48.9561 41.7086 48.9365 41.6992C48.9145 41.6885 48.8997 41.673 48.8941 41.6649C48.8909 41.6603 48.9011 41.6732 48.9117 41.7192C48.9223 41.7653 48.9309 41.8342 48.9309 41.9316H49.9914ZM48.9383 40.6441C48.4737 40.6441 48.0831 40.9288 47.7728 41.266L48.5533 41.9841C48.796 41.7203 48.9221 41.7046 48.9383 41.7046V40.6441ZM47.765 41.2748C47.4614 41.6198 47.1905 42.0473 46.9472 42.5467L47.9006 43.0112C48.1141 42.573 48.3359 42.2313 48.5612 41.9754L47.765 41.2748ZM46.9434 42.5547C46.4088 43.7001 46.1364 44.8641 46.1364 46.0422H47.1969C47.1969 45.0328 47.4293 44.0212 47.9044 43.0032L46.9434 42.5547ZM46.1364 46.0422C46.1364 46.6899 46.2557 47.2787 46.6004 47.696L47.418 47.0206C47.306 46.885 47.1969 46.5964 47.1969 46.0422H46.1364ZM46.6079 47.7049C46.9753 48.1303 47.5205 48.2852 48.109 48.2852V47.2247C47.6879 47.2247 47.4998 47.1151 47.4105 47.0117L46.6079 47.7049ZM48.109 48.2852C48.9723 48.2852 49.7299 47.921 50.3669 47.2564L49.6012 46.5226C49.1323 47.0119 48.64 47.2247 48.109 47.2247V48.2852ZM50.3847 47.2368C50.5755 47.0167 50.7273 46.7759 50.8349 46.5145L49.8543 46.1107C49.7936 46.258 49.705 46.4018 49.5833 46.5423L50.3847 47.2368ZM50.0976 46.7819C50.3293 46.9038 50.4994 47.1356 50.4994 47.6648H51.56C51.56 46.8718 51.2734 46.2022 50.5916 45.8434L50.0976 46.7819ZM50.4994 47.6648C50.4994 48.0967 50.2781 48.5054 49.6402 48.8861L50.1836 49.7968C51.0361 49.2881 51.56 48.5791 51.56 47.6648H50.4994ZM49.6412 48.8855C48.9788 49.2788 48.0836 49.4963 46.9191 49.4963V50.5569C48.2065 50.5569 49.3066 50.3176 50.1826 49.7974L49.6412 48.8855ZM46.9191 49.4963C45.7889 49.4963 45.0366 49.1986 44.5597 48.6935C44.0774 48.1827 43.7895 47.368 43.7895 46.1504H42.7289C42.7289 47.5168 43.0509 48.6403 43.7886 49.4216C44.5317 50.2086 45.6093 50.5569 46.9191 50.5569V49.4963ZM43.7895 46.1504C43.7895 44.3674 44.2917 43.0298 45.2408 42.07L44.4867 41.3243C43.2964 42.528 42.7289 44.1592 42.7289 46.1504H43.7895ZM45.243 42.0678C46.1506 41.1391 47.4639 40.6409 49.2629 40.6409V39.5804C47.2636 39.5804 45.6443 40.1399 44.4845 41.3266L45.243 42.0678ZM49.2629 40.6409C50.1645 40.6409 50.7452 40.8064 51.089 41.0545C51.4008 41.2794 51.5812 41.6181 51.5812 42.1659H52.6417C52.6417 41.3436 52.3473 40.6546 51.7096 40.1944C51.1039 39.7574 50.2603 39.5804 49.2629 39.5804V40.6409ZM62.4705 48.6924L62.9788 48.8436L63.1311 48.3313L62.6177 48.183L62.4705 48.6924ZM61.497 49.7201L61.2733 49.2393L61.2705 49.2406L61.497 49.7201ZM59.045 49.8283L59.2911 49.3585L59.2822 49.354L59.045 49.8283ZM58.4861 49.3415L58.9313 49.0534L58.9268 49.0465L58.9221 49.0397L58.4861 49.3415ZM58.4501 46.0241L58.9701 46.1282L58.9715 46.1202L58.4501 46.0241ZM58.7025 44.6539L58.182 44.5522L58.181 44.5579L58.7025 44.6539ZM57.2962 42.5265L57.779 42.746L57.7818 42.7395L57.2962 42.5265ZM56.9897 43.5181L56.4709 43.4081L56.4697 43.4144L56.9897 43.5181ZM55.7637 49.666L55.8162 50.1937L56.207 50.1548L56.2838 49.7697L55.7637 49.666ZM52.1399 50.0266L51.6195 49.9247L51.4824 50.6249L52.1924 50.5543L52.1399 50.0266ZM54.682 37.0457L54.6295 36.518L54.2373 36.557L54.1616 36.9438L54.682 37.0457ZM58.3058 36.6851L58.8258 36.7891L58.9663 36.0865L58.2533 36.1574L58.3058 36.6851ZM58.1616 37.4063L57.6415 37.3023L57.6399 37.3114L58.1616 37.4063ZM57.2241 41.1202L56.7426 40.898L57.599 41.4952L57.2241 41.1202ZM62.4165 41.4087L61.9054 41.5507L61.9092 41.5631L62.4165 41.4087ZM62.5066 42.833L61.9804 42.7672L61.9785 42.7824L61.9775 42.7977L62.5066 42.833ZM62.3984 43.6083L62.9202 43.7025L62.9204 43.7015L62.3984 43.6083ZM62.164 44.9063L62.6838 45.0121L62.6859 45.0006L62.164 44.9063ZM61.7494 46.9436L62.2676 47.0563L62.269 47.0494L61.7494 46.9436ZM61.129 47.6648C61.129 48.0224 61.2221 48.3635 61.4459 48.6469C61.6672 48.9273 61.9774 49.1019 62.3234 49.2019L62.6177 48.183C62.4228 48.1267 62.3274 48.052 62.2783 47.9898C62.2316 47.9307 62.1895 47.836 62.1895 47.6648H61.129ZM61.9623 48.5413C61.883 48.8079 61.6866 49.0471 61.2733 49.2393L61.7206 50.2009C62.341 49.9123 62.7936 49.4664 62.9788 48.8436L61.9623 48.5413ZM61.2705 49.2406C60.909 49.4113 60.5296 49.4963 60.1268 49.4963V50.5569C60.6855 50.5569 61.2196 50.4375 61.7234 50.1996L61.2705 49.2406ZM60.1268 49.4963C59.6948 49.4963 59.4336 49.4332 59.2911 49.3586L58.799 50.298C59.1612 50.4878 59.6212 50.5569 60.1268 50.5569V49.4963ZM59.2822 49.354C59.1174 49.2716 59.0068 49.1701 58.9313 49.0534L58.0409 49.6296C58.2299 49.9216 58.4918 50.1445 58.8079 50.3026L59.2822 49.354ZM58.9221 49.0397C58.7924 48.8523 58.6919 48.5255 58.6919 47.9893H57.6313C57.6313 48.631 57.7471 49.2056 58.0501 49.6433L58.9221 49.0397ZM58.6919 47.9893C58.6919 47.7011 58.7765 47.096 58.97 46.1281L57.9301 45.9202C57.739 46.8754 57.6313 47.5804 57.6313 47.9893H58.6919ZM58.9715 46.1202L59.224 44.75L58.181 44.5579L57.9286 45.9281L58.9715 46.1202ZM59.2229 44.7556C59.4261 43.7155 59.5392 42.9519 59.5392 42.5085H58.4787C58.4787 42.8343 58.3875 43.501 58.182 44.5522L59.2229 44.7556ZM59.5392 42.5085C59.5392 42.1404 59.4913 41.7801 59.3332 41.4944C59.2497 41.3436 59.1309 41.2057 58.9681 41.1077C58.8045 41.0092 58.6256 40.9686 58.4501 40.9686V42.0291C58.4608 42.0291 58.445 42.0306 58.421 42.0162C58.398 42.0023 58.3957 41.9906 58.4053 42.0081C58.4335 42.059 58.4787 42.2035 58.4787 42.5085H59.5392ZM58.4501 40.9686C57.6598 40.9686 57.1396 41.5635 56.8106 42.3135L57.7818 42.7395C58.0538 42.1194 58.3028 42.0291 58.4501 42.0291V40.9686ZM56.8135 42.3071C56.6725 42.6173 56.5602 42.9874 56.471 43.4081L57.5084 43.6281C57.5875 43.2556 57.6795 42.9646 57.7789 42.7459L56.8135 42.3071ZM56.4697 43.4144L55.2437 49.5623L56.2838 49.7697L57.5097 43.6218L56.4697 43.4144ZM55.7112 49.1384L52.0874 49.4989L52.1924 50.5543L55.8162 50.1937L55.7112 49.1384ZM52.6603 50.1285L55.2024 37.1476L54.1616 36.9438L51.6195 49.9247L52.6603 50.1285ZM54.7345 37.5733L58.3583 37.2128L58.2533 36.1574L54.6295 36.518L54.7345 37.5733ZM57.7859 36.5811L57.6416 37.3023L58.6816 37.5103L58.8258 36.7891L57.7859 36.5811ZM57.6399 37.3114C57.3021 39.1692 56.9989 40.3429 56.7426 40.898L57.7055 41.3425C58.0262 40.6476 58.348 39.3453 58.6833 37.5011L57.6399 37.3114ZM57.599 41.4952C58.1453 40.9489 58.9493 40.6409 60.0907 40.6409V39.5804C58.7561 39.5804 57.649 39.9454 56.8491 40.7453L57.599 41.4952ZM60.0907 40.6409C60.6953 40.6409 61.1165 40.742 61.3963 40.8982C61.6586 41.0446 61.8227 41.2526 61.9055 41.5506L62.9274 41.2668C62.7698 40.6994 62.4261 40.2584 61.9132 39.9721C61.4177 39.6956 60.7963 39.5804 60.0907 39.5804V40.6409ZM61.9092 41.5631C61.981 41.7993 62.0124 42.0052 62.0124 42.184H63.0729C63.0729 41.8819 63.0201 41.571 62.9237 41.2543L61.9092 41.5631ZM62.0124 42.184C62.0124 42.4073 62.0012 42.6012 61.9804 42.7672L63.0328 42.8988C63.0601 42.6802 63.0729 42.4414 63.0729 42.184H62.0124ZM61.9775 42.7977C61.9675 42.9484 61.9355 43.184 61.8764 43.515L62.9204 43.7015C62.9815 43.3594 63.0217 43.0782 63.0357 42.8683L61.9775 42.7977ZM61.8766 43.514L61.6422 44.8121L62.6859 45.0006L62.9202 43.7025L61.8766 43.514ZM61.6444 44.8006L61.2298 46.8379L62.269 47.0494L62.6837 45.0121L61.6444 44.8006ZM61.2312 46.831C61.1659 47.1314 61.129 47.4113 61.129 47.6648H62.1895C62.1895 47.5097 62.2127 47.3087 62.2675 47.0563L61.2312 46.831Z" fill="#FFF2F2" mask="url(#path-1-outside-1_18_907)"/>
<mask id="path-3-outside-2_18_907" maskUnits="userSpaceOnUse" x="31.0484" y="14.2422" width="16" height="18" fill="black">
<rect fill="white" x="31.0484" y="14.2422" width="16" height="18"/>
<path d="M43.6846 25.5822C44.1441 25.8947 44.3739 26.4002 44.3739 27.0988C44.3739 27.7789 44.1993 28.3396 43.85 28.7808C43.5007 29.222 43.0412 29.5896 42.4713 29.8837C41.2948 30.4904 40.0724 30.7937 38.804 30.7937C37.5356 30.7937 36.5246 30.6558 35.7709 30.3801C35.0356 30.1043 34.4198 29.7091 33.9234 29.1944C32.9491 28.2201 32.462 26.8414 32.462 25.0583C32.462 22.2825 33.2157 20.0491 34.7231 18.3579C36.3407 16.538 38.5558 15.6281 41.3684 15.6281C43.1147 15.6281 44.4199 15.9957 45.2838 16.731C45.9272 17.2825 46.2489 18.0086 46.2489 18.9093C46.2489 22.1447 43.4548 23.7623 37.8665 23.7623C37.7929 24.2403 37.7562 24.6815 37.7562 25.0859C37.7562 25.9315 37.94 26.5197 38.3077 26.8506C38.6937 27.1631 39.236 27.3194 39.9345 27.3194C40.6331 27.3194 41.35 27.1631 42.0853 26.8506C42.839 26.5197 43.3721 26.0969 43.6846 25.5822ZM38.0595 22.5767C39.3647 22.5767 40.3941 22.1722 41.1478 21.3634C41.9014 20.5913 42.2783 19.5895 42.2783 18.3579C42.2783 17.9351 42.1956 17.6134 42.0301 17.3928C41.8831 17.1538 41.6533 17.0343 41.3408 17.0343C41.0283 17.0343 40.7342 17.0987 40.4584 17.2273C40.2011 17.3376 39.9345 17.595 39.6588 17.9994C38.9786 18.9185 38.4455 20.4443 38.0595 22.5767Z"/>
</mask>
<path d="M43.6846 25.5822C44.1441 25.8947 44.3739 26.4002 44.3739 27.0988C44.3739 27.7789 44.1993 28.3396 43.85 28.7808C43.5007 29.222 43.0412 29.5896 42.4713 29.8837C41.2948 30.4904 40.0724 30.7937 38.804 30.7937C37.5356 30.7937 36.5246 30.6558 35.7709 30.3801C35.0356 30.1043 34.4198 29.7091 33.9234 29.1944C32.9491 28.2201 32.462 26.8414 32.462 25.0583C32.462 22.2825 33.2157 20.0491 34.7231 18.3579C36.3407 16.538 38.5558 15.6281 41.3684 15.6281C43.1147 15.6281 44.4199 15.9957 45.2838 16.731C45.9272 17.2825 46.2489 18.0086 46.2489 18.9093C46.2489 22.1447 43.4548 23.7623 37.8665 23.7623C37.7929 24.2403 37.7562 24.6815 37.7562 25.0859C37.7562 25.9315 37.94 26.5197 38.3077 26.8506C38.6937 27.1631 39.236 27.3194 39.9345 27.3194C40.6331 27.3194 41.35 27.1631 42.0853 26.8506C42.839 26.5197 43.3721 26.0969 43.6846 25.5822ZM38.0595 22.5767C39.3647 22.5767 40.3941 22.1722 41.1478 21.3634C41.9014 20.5913 42.2783 19.5895 42.2783 18.3579C42.2783 17.9351 42.1956 17.6134 42.0301 17.3928C41.8831 17.1538 41.6533 17.0343 41.3408 17.0343C41.0283 17.0343 40.7342 17.0987 40.4584 17.2273C40.2011 17.3376 39.9345 17.595 39.6588 17.9994C38.9786 18.9185 38.4455 20.4443 38.0595 22.5767Z" fill="url(#paint1_linear_18_907)"/>
<path d="M43.6846 25.5822L43.9827 25.1437L43.521 24.8298L43.2313 25.307L43.6846 25.5822ZM43.85 28.7808L44.2658 29.1099L43.85 28.7808ZM42.4713 29.8837L42.7143 30.355L42.7145 30.3549L42.4713 29.8837ZM35.7709 30.3801L35.5847 30.8766L35.5887 30.878L35.7709 30.3801ZM33.9234 29.1944L34.3052 28.8262L34.2984 28.8194L33.9234 29.1944ZM34.7231 18.3579L35.1189 18.7107L35.1194 18.7102L34.7231 18.3579ZM45.2838 16.731L45.6289 16.3284L45.6275 16.3272L45.2838 16.731ZM37.8665 23.7623V23.2321H37.4116L37.3424 23.6817L37.8665 23.7623ZM38.3077 26.8506L37.9529 27.2447L37.9632 27.254L37.974 27.2628L38.3077 26.8506ZM42.0853 26.8506L42.2927 27.3387L42.2984 27.3361L42.0853 26.8506ZM38.0595 22.5767L37.5377 22.4822L37.4246 23.1069H38.0595V22.5767ZM41.1478 21.3634L40.7682 20.9929L40.7598 21.0019L41.1478 21.3634ZM42.0301 17.3928L41.5785 17.6707L41.5913 17.6914L41.6059 17.7109L42.0301 17.3928ZM40.4584 17.2273L40.6673 17.7147L40.675 17.7114L40.6827 17.7079L40.4584 17.2273ZM39.6588 17.9994L40.085 18.3148L40.0911 18.3066L40.0969 18.2981L39.6588 17.9994ZM43.3864 26.0207C43.6632 26.209 43.8436 26.525 43.8436 27.0988H44.9042C44.9042 26.2755 44.625 25.5805 43.9827 25.1437L43.3864 26.0207ZM43.8436 27.0988C43.8436 27.6852 43.6948 28.1225 43.4342 28.4516L44.2658 29.1099C44.7037 28.5567 44.9042 27.8726 44.9042 27.0988H43.8436ZM43.4342 28.4516C43.1379 28.826 42.7403 29.1481 42.2281 29.4125L42.7145 30.3549C43.342 30.0311 43.8636 29.6179 44.2658 29.1099L43.4342 28.4516ZM42.2283 29.4124C41.1236 29.982 39.9841 30.2634 38.804 30.2634V31.3239C40.1607 31.3239 41.4661 30.9987 42.7143 30.355L42.2283 29.4124ZM38.804 30.2634C37.5659 30.2634 36.6245 30.1277 35.9531 29.8821L35.5887 30.878C36.4246 31.1839 37.5053 31.3239 38.804 31.3239V30.2634ZM35.9571 29.8836C35.2883 29.6328 34.7415 29.2788 34.3051 28.8263L33.5417 29.5625C34.098 30.1394 34.7828 30.5759 35.5847 30.8766L35.9571 29.8836ZM34.2984 28.8194C33.4504 27.9715 32.9923 26.744 32.9923 25.0583H31.9317C31.9317 26.9389 32.4479 28.4688 33.5485 29.5693L34.2984 28.8194ZM32.9923 25.0583C32.9923 22.382 33.7165 20.2841 35.1189 18.7107L34.3272 18.005C32.7148 19.814 31.9317 22.1831 31.9317 25.0583H32.9923ZM35.1194 18.7102C36.6204 17.0215 38.6814 16.1583 41.3684 16.1583V15.0978C38.4303 15.0978 36.0611 16.0545 34.3267 18.0056L35.1194 18.7102ZM41.3684 16.1583C43.0537 16.1583 44.212 16.5152 44.9402 17.1348L45.6275 16.3272C44.6277 15.4763 43.1757 15.0978 41.3684 15.0978V16.1583ZM44.9387 17.1336C45.4564 17.5774 45.7187 18.1523 45.7187 18.9093H46.7792C46.7792 17.8649 46.398 16.9876 45.6289 16.3284L44.9387 17.1336ZM45.7187 18.9093C45.7187 20.3383 45.1205 21.3764 43.8876 22.0902C42.6107 22.8295 40.6268 23.2321 37.8665 23.2321V24.2926C40.6944 24.2926 42.9018 23.8864 44.419 23.008C45.9802 22.1041 46.7792 20.7157 46.7792 18.9093H45.7187ZM37.3424 23.6817C37.2655 24.1813 37.2259 24.6499 37.2259 25.0859H38.2864C38.2864 24.7131 38.3204 24.2992 38.3906 23.843L37.3424 23.6817ZM37.2259 25.0859C37.2259 25.9804 37.4156 26.7612 37.9529 27.2447L38.6624 26.4565C38.4644 26.2783 38.2864 25.8825 38.2864 25.0859H37.2259ZM37.974 27.2628C38.4863 27.6775 39.1631 27.8496 39.9345 27.8496V26.7891C39.3089 26.7891 38.9011 26.6488 38.6413 26.4385L37.974 27.2628ZM39.9345 27.8496C40.7139 27.8496 41.5012 27.675 42.2927 27.3386L41.8779 26.3626C41.1988 26.6512 40.5523 26.7891 39.9345 26.7891V27.8496ZM42.2984 27.3361C43.1161 26.9772 43.7514 26.4938 44.1378 25.8574L43.2313 25.307C42.9927 25.7 42.5618 26.0623 41.8721 26.3651L42.2984 27.3361ZM38.0595 23.1069C39.4829 23.1069 40.6636 22.6608 41.5357 21.7249L40.7598 21.0019C40.1246 21.6836 39.2464 22.0464 38.0595 22.0464V23.1069ZM41.5272 21.7338C42.3915 20.8485 42.8086 19.7067 42.8086 18.3579H41.748C41.748 19.4723 41.4114 20.3342 40.7683 20.993L41.5272 21.7338ZM42.8086 18.3579C42.8086 17.878 42.7166 17.4243 42.4543 17.0746L41.6059 17.7109C41.6745 17.8024 41.748 17.9921 41.748 18.3579H42.8086ZM42.4817 17.1149C42.2258 16.6989 41.8124 16.5041 41.3408 16.5041V17.5646C41.4941 17.5646 41.5404 17.6087 41.5785 17.6707L42.4817 17.1149ZM41.3408 16.5041C40.9529 16.5041 40.5821 16.5845 40.2342 16.7468L40.6827 17.7079C40.8863 17.6128 41.1036 17.5646 41.3408 17.5646V16.5041ZM40.2495 16.7399C39.8531 16.9099 39.516 17.2675 39.2207 17.7007L40.0969 18.2981C40.353 17.9224 40.5491 17.7654 40.6673 17.7147L40.2495 16.7399ZM39.2325 17.684C38.4778 18.7039 37.9275 20.3291 37.5377 22.4822L38.5813 22.6711C38.9636 20.5595 39.4795 19.1331 40.085 18.3148L39.2325 17.684Z" fill="#FFF2F2" mask="url(#path-3-outside-2_18_907)"/>
<path fill-rule="evenodd" clip-rule="evenodd" d="M47.1708 36.2165C36.6681 36.2165 28.1539 28.333 28.1539 18.6083C28.1539 8.88349 36.6681 1 47.1708 1C57.6736 1 66.1878 8.88349 66.1878 18.6083C66.1878 22.6773 64.6971 26.424 62.1939 29.4057L75 41.2632L71.6383 44.376L58.8322 32.5185C55.6119 34.8363 51.5655 36.2165 47.1708 36.2165ZM61.4335 18.6081C61.4335 25.9017 55.0479 31.8143 47.1708 31.8143C39.2938 31.8143 32.9082 25.9017 32.9082 18.6081C32.9082 11.3146 39.2938 5.40197 47.1708 5.40197C55.0479 5.40197 61.4335 11.3146 61.4335 18.6081Z" fill="url(#paint2_linear_18_907)"/>
<path d="M62.1939 29.4057L61.9908 29.2352L61.8284 29.4287L62.0138 29.6003L62.1939 29.4057ZM75 41.2632L75.1801 41.4578L75.3902 41.2632L75.1801 41.0687L75 41.2632ZM71.6383 44.376L71.4581 44.5705L71.6383 44.7373L71.8184 44.5705L71.6383 44.376ZM58.8322 32.5185L59.0123 32.3239L58.8532 32.1766L58.6773 32.3033L58.8322 32.5185ZM27.8888 18.6083C27.8888 28.4983 36.5412 36.4817 47.1708 36.4817V35.9514C36.7949 35.9514 28.419 28.1678 28.419 18.6083H27.8888ZM47.1708 0.734867C36.5412 0.734867 27.8888 8.71822 27.8888 18.6083H28.419C28.419 9.04876 36.7949 1.26513 47.1708 1.26513V0.734867ZM66.4529 18.6083C66.4529 8.71822 57.8004 0.734867 47.1708 0.734867V1.26513C57.5467 1.26513 65.9226 9.04876 65.9226 18.6083H66.4529ZM62.397 29.5762C64.9375 26.5501 66.4529 22.7439 66.4529 18.6083H65.9226C65.9226 22.6107 64.4568 26.298 61.9908 29.2352L62.397 29.5762ZM75.1801 41.0687L62.374 29.2112L62.0138 29.6003L74.8199 41.4578L75.1801 41.0687ZM71.8184 44.5705L75.1801 41.4578L74.8199 41.0687L71.4581 44.1814L71.8184 44.5705ZM58.652 32.713L71.4581 44.5705L71.8184 44.1814L59.0123 32.3239L58.652 32.713ZM47.1708 36.4817C51.6213 36.4817 55.7219 35.0838 58.9871 32.7336L58.6773 32.3033C55.5019 34.5888 51.5096 35.9514 47.1708 35.9514V36.4817ZM47.1708 32.0794C55.1748 32.0794 61.6987 26.067 61.6987 18.6081H61.1684C61.1684 25.7364 54.9211 31.5492 47.1708 31.5492V32.0794ZM32.643 18.6081C32.643 26.067 39.1669 32.0794 47.1708 32.0794V31.5492C39.4206 31.5492 33.1733 25.7364 33.1733 18.6081H32.643ZM47.1708 5.13683C39.1669 5.13683 32.643 11.1493 32.643 18.6081H33.1733C33.1733 11.4798 39.4206 5.6671 47.1708 5.6671V5.13683ZM61.6987 18.6081C61.6987 11.1493 55.1748 5.13683 47.1708 5.13683V5.6671C54.9211 5.6671 61.1684 11.4798 61.1684 18.6081H61.6987Z" fill="#FFF2F2"/>
</g>
<defs>
<filter id="filter0_d_18_907" x="0.798777" y="0.734863" width="75.2985" height="53.4687" filterUnits="userSpaceOnUse" color-interpolation-filters="sRGB">
<feFlood flood-opacity="0" result="BackgroundImageFix"/>
<feColorMatrix in="SourceAlpha" type="matrix" values="0 0 0 0 0 0 0 0 0 0 0 0 0 0 0 0 0 0 127 0" result="hardAlpha"/>
<feOffset dy="1.5908"/>
<feGaussianBlur stdDeviation="0.353511"/>
<feComposite in2="hardAlpha" operator="out"/>
<feColorMatrix type="matrix" values="0 0 0 0 0 0 0 0 0 0 0 0 0 0 0 0 0 0 0.25 0"/>
<feBlend mode="normal" in2="BackgroundImageFix" result="effect1_dropShadow_18_907"/>
<feBlend mode="normal" in="SourceGraphic" in2="effect1_dropShadow_18_907" result="shape"/>
</filter>
<linearGradient id="paint0_linear_18_907" x1="65.2784" y1="52.001" x2="30.1288" y2="-4.68166" gradientUnits="userSpaceOnUse">
<stop stop-color="#FD788C"/>
<stop offset="1" stop-color="#F157A4"/>
</linearGradient>
<linearGradient id="paint1_linear_18_907" x1="48.1331" y1="26.5044" x2="27.709" y2="11.016" gradientUnits="userSpaceOnUse">
<stop stop-color="#FD788C"/>
<stop offset="1" stop-color="#F157A4"/>
</linearGradient>
<linearGradient id="paint2_linear_18_907" x1="75" y1="44.4814" x2="31.7521" y2="-2.22631" gradientUnits="userSpaceOnUse">
<stop stop-color="#FD788C"/>
<stop offset="1" stop-color="#F157A4"/>
</linearGradient>
</defs>
</svg>
